<svg width="131" height="131" viewBox="0 0 131 131" fill="none" xmlns="http://www.w3.org/2000/svg">
<g clip-path="url(#clip0)">
<path d="M68.7984 72.0349H16.2654C15.2056 72.0349 14.3464 72.8938 14.3464 73.9539C14.3464 75.0139 15.2056 75.8728 16.2654 75.8728H68.7982C69.8582 75.8728 70.7171 75.0136 70.7171 73.9539C70.7174 72.8938 69.8582 72.0349 68.7984 72.0349Z" fill="#77BC1F"/>
<path d="M68.7984 84.1448H16.2654C15.2056 84.1448 14.3464 85.0037 14.3464 86.0637C14.3464 87.1237 15.2056 87.9827 16.2654 87.9827H68.7982C69.8582 87.9827 70.7171 87.1237 70.7171 86.0637C70.7174 85.0037 69.8582 84.1448 68.7984 84.1448Z" fill="#77BC1F"/>
<path d="M42.5319 96.2546H16.2654C15.2056 96.2546 14.3464 97.1138 14.3464 98.1736C14.3464 99.2336 15.2056 100.093 16.2654 100.093H42.5319C43.5917 100.093 44.4508 99.2336 44.4508 98.1736C44.4508 97.1136 43.5917 96.2546 42.5319 96.2546Z" fill="#77BC1F"/>
<path d="M119.284 47.8149H66.7507C65.691 47.8149 64.8318 48.6739 64.8318 49.7339C64.8318 50.7939 65.691 51.6528 66.7507 51.6528H119.284C120.344 51.6528 121.203 50.7939 121.203 49.7339C121.203 48.6739 120.344 47.8149 119.284 47.8149Z" fill="#77BC1F"/>
<path d="M119.284 59.9248H93.0173C91.9573 59.9248 91.0984 60.7837 91.0984 61.8438C91.0984 62.9038 91.9573 63.7627 93.0173 63.7627H119.284C120.344 63.7627 121.203 62.9038 121.203 61.8438C121.203 60.7837 120.344 59.9248 119.284 59.9248Z" fill="#77BC1F"/>
<path d="M11.8845 14.6528H50.2642C51.324 14.6528 52.1831 13.7939 52.1831 12.7339C52.1831 11.6739 51.324 10.8149 50.2642 10.8149H11.8845C10.8248 10.8149 9.96558 11.6739 9.96558 12.7339C9.96558 13.7939 10.8248 14.6528 11.8845 14.6528Z" fill="#77BC1F"/>
<path d="M11.8845 24.2471H31.0742C32.134 24.2471 32.9932 23.3881 32.9932 22.3281C32.9932 21.2681 32.134 20.4092 31.0742 20.4092H11.8845C10.8248 20.4092 9.96558 21.2681 9.96558 22.3281C9.96558 23.3881 10.8248 24.2471 11.8845 24.2471Z" fill="#77BC1F"/>
<path d="M72.6746 57.728H12.3893C5.56015 57.728 0.00390625 63.284 0.00390625 70.1134V101.251C0.00390625 108.08 5.55989 113.636 12.3893 113.636H12.8219L10.3419 127.406C10.1075 128.708 10.7321 130.005 11.896 130.633C13.0742 131.268 14.4986 131.059 15.4455 130.16L32.4262 114.041C32.7012 113.78 33.0612 113.636 33.4404 113.636H72.6744C79.5038 113.636 85.0597 108.08 85.0597 101.251V70.1134C85.0603 63.284 79.504 57.728 72.6746 57.728ZM81.2221 101.251C81.2221 105.964 77.3875 109.798 72.6746 109.798H33.4406C32.0738 109.798 30.7753 110.317 29.7839 111.258L14.5447 125.723L16.698 113.768C17.0708 111.698 15.479 109.798 13.3795 109.798H12.3893C7.67636 109.798 3.84205 105.964 3.84205 101.251V70.1134C3.84205 65.4005 7.67636 61.5659 12.3893 61.5659H72.6746C77.3875 61.5659 81.2221 65.4005 81.2221 70.1134V101.251Z" fill="#77BC1F"/>
<path d="M7.53189 34.1342H21.8447C21.8741 34.1342 21.9015 34.1501 21.916 34.1751L28.0293 44.7293C28.6659 45.8288 29.8047 46.485 31.075 46.485C32.3456 46.485 33.4842 45.8288 34.1211 44.7293L40.234 34.1754C40.2489 34.1498 40.2763 34.1342 40.3057 34.1342H54.6182C58.7145 34.1342 62.0468 30.8016 62.0468 26.7053V7.42862C62.0466 3.33257 58.7143 0 54.6179 0H7.53189C3.43584 0 0.103271 3.33257 0.103271 7.42862V8.23944C0.103271 9.29946 0.962447 10.1584 2.02222 10.1584C3.08199 10.1584 3.94116 9.29946 3.94116 8.23944V7.42862C3.94142 5.44853 5.55205 3.83789 7.53189 3.83789H54.6179C56.5978 3.83789 58.2087 5.44853 58.2087 7.42837V26.7051C58.2087 28.6849 56.5978 30.2958 54.6179 30.2958H40.3054C38.9115 30.2958 37.6115 31.0452 36.9127 32.2513L31.0748 42.3301L25.2371 32.2513C24.5384 31.0452 23.2386 30.2958 21.8444 30.2958H7.53164C5.5518 30.2958 3.94116 28.6849 3.94116 26.7051V17.2099C3.94116 16.1498 3.08199 15.2909 2.02222 15.2909C0.962447 15.2909 0.103271 16.1498 0.103271 17.2099V26.7053C0.103271 30.8016 3.43584 34.1342 7.53189 34.1342Z" fill="#77BC1F"/>
<path d="M119.783 36.0132H66.2514C60.0685 36.0132 55.0386 41.0434 55.0386 47.226V50.6765C55.0386 51.7365 55.8977 52.5954 56.9575 52.5954C58.0173 52.5954 58.8765 51.7365 58.8765 50.6765V47.226C58.8765 43.1593 62.1847 39.8511 66.2511 39.8511H119.783C123.85 39.8511 127.158 43.1593 127.158 47.226V74.5131C127.158 78.5797 123.85 81.888 119.783 81.888H118.904C116.902 81.888 115.391 83.6992 115.745 85.6658L117.541 95.6364L104.485 83.243C103.565 82.3693 102.359 81.888 101.09 81.888H92.1116C91.0515 81.888 90.1926 82.7469 90.1926 83.8069C90.1926 84.867 91.0515 85.7259 92.1116 85.7259H101.09C101.371 85.7259 101.639 85.8326 101.843 86.0263L116.921 100.34C117.838 101.21 119.205 101.396 120.323 100.792C121.439 100.19 122.037 98.9474 121.812 97.7004L119.656 85.7262H119.783C125.966 85.7262 130.996 80.696 130.996 74.5134V47.226C130.996 41.0431 125.966 36.0132 119.783 36.0132Z" fill="#77BC1F"/>
</g>
<defs>
<clipPath id="clip0">
<rect width="131" height="131" fill="white"/>
</clipPath>
</defs>
</svg>
