<svg width="114" height="115" viewBox="0 0 114 115" fill="none" xmlns="http://www.w3.org/2000/svg">
<path d="M104.15 19.7882C103.733 19.3682 103.161 19.1299 102.575 19.1299C101.987 19.1299 101.415 19.3682 100.999 19.7882C100.585 20.2058 100.349 20.7832 100.349 21.3762C100.349 21.9669 100.585 22.5466 100.999 22.9644C101.415 23.3822 101.987 23.6225 102.575 23.6225C103.161 23.6225 103.733 23.3824 104.15 22.9644C104.564 22.5466 104.8 21.9672 104.8 21.3762C104.8 20.7832 104.564 20.2058 104.15 19.7882Z" fill="#77BC1F"/>
<path d="M53.008 72.6893C52.5918 72.2693 52.0194 72.031 51.4336 72.031C50.8458 72.031 50.2733 72.2693 49.8569 72.6893C49.443 73.1069 49.2068 73.6844 49.2068 74.2773C49.2068 74.868 49.443 75.4475 49.8569 75.8655C50.2733 76.2833 50.8455 76.5236 51.4336 76.5236C52.0192 76.5236 52.5916 76.2835 53.008 75.8655C53.4221 75.4478 53.6581 74.8683 53.6581 74.2773C53.6583 73.6844 53.4223 73.1069 53.008 72.6893Z" fill="#77BC1F"/>
<path d="M109.543 27.248C108.935 26.1694 107.575 25.7925 106.507 26.4057C105.438 27.0189 105.064 28.3904 105.672 29.4687C112.286 41.2019 110.289 56.071 100.816 65.6275L99.1275 67.3307C98.7196 66.251 98.0876 65.2382 97.2266 64.3699L74.3474 41.2901C75.8436 40.5476 77.2261 39.5568 78.4398 38.3325L82.8279 33.9057C83.6974 33.0286 83.6974 31.6061 82.8279 30.729C81.9582 29.8519 80.5486 29.8519 79.6787 30.729L75.2905 35.1558C73.229 37.2353 70.4883 38.3805 67.5731 38.3805H58.8011C58.2106 38.3805 57.6444 38.6173 57.2264 39.0384L50.5111 45.8126C48.517 47.8245 45.2722 47.8245 43.2781 45.8126C41.2838 43.801 41.2838 40.5278 43.2781 38.5162L58.6094 23.0507C67.9785 13.5992 82.6055 11.5206 94.178 17.9961C95.2535 18.5974 96.609 18.2064 97.2055 17.1213C97.802 16.0364 97.4137 14.669 96.3382 14.0673C89.9551 10.4962 82.4347 9.067 75.161 10.0443C68.3539 10.9587 62.1233 13.8339 57.016 18.3962C50.7418 12.7852 42.7545 9.7168 34.298 9.7168C25.1366 9.7168 16.5238 13.3157 10.0456 19.8505C3.5674 26.3853 0 35.0743 0 44.3158C0 53.5576 3.56762 62.246 10.0456 68.781L10.8848 69.6275C11.0308 69.7746 11.1929 69.895 11.3642 69.9927C11.5131 71.9361 12.3202 73.8372 13.7904 75.32C15.4267 76.9705 17.5749 77.7952 19.7238 77.7952C19.8353 77.7952 19.9471 77.7916 20.0587 77.7871C20.0542 77.9008 20.0504 78.0144 20.0504 78.1288C20.0504 80.3897 20.9232 82.5154 22.5081 84.1142C24.1444 85.7646 26.2926 86.5896 28.4414 86.5894C28.553 86.5894 28.6648 86.5858 28.7763 86.5813C28.7719 86.6949 28.7681 86.8086 28.7681 86.9229C28.7681 89.1838 29.6409 91.3095 31.226 92.9083C32.8621 94.5585 35.0107 95.3835 37.1593 95.3835C37.2722 95.3835 37.3851 95.3799 37.498 95.3754C37.4076 97.6554 38.2218 99.9657 39.9436 101.703C41.5287 103.302 43.636 104.182 45.877 104.182C48.1185 104.182 50.2257 103.302 51.8103 101.703L54.9224 98.5633L59.1259 102.803C60.7108 104.402 62.818 105.283 65.0593 105.283C67.3005 105.283 69.4077 104.402 70.9926 102.803C72.7351 101.046 73.5491 98.7005 73.4356 96.3938C73.5754 96.4007 73.7157 96.4048 73.8557 96.4048C76.0046 96.4048 78.1537 95.5798 79.7895 93.9294C81.5104 92.1934 82.3247 89.8848 82.2352 87.6059C82.3479 87.6104 82.4605 87.6142 82.5739 87.6142C84.8151 87.6142 86.9223 86.7338 88.5072 85.135C90.2281 83.399 91.0424 81.0905 90.9529 78.8116C91.0655 78.8161 91.1782 78.8199 91.2915 78.8199C93.5328 78.8199 95.64 77.9394 97.2249 76.3406C98.0298 75.5287 98.6358 74.5907 99.0446 73.5896C99.2613 73.4832 99.465 73.3414 99.6451 73.16L103.963 68.8039C114.851 57.8225 117.145 40.7338 109.543 27.248ZM19.724 73.3066C18.6722 73.3066 17.6834 72.8936 16.9395 72.1432C16.1958 71.393 15.7861 70.3955 15.7861 69.3344C15.7861 68.2736 16.1956 67.2759 16.9395 66.5257L20.7767 62.6548C21.5204 61.9043 22.5094 61.4913 23.5613 61.4913C24.6129 61.4913 25.6019 61.9043 26.3456 62.6548C27.881 64.2037 27.881 66.7235 26.3456 68.2722L22.5083 72.1434C21.7646 72.8934 20.7761 73.3066 19.724 73.3066ZM25.6578 80.9377C24.9139 80.1875 24.5044 79.1898 24.5044 78.129C24.5044 77.0679 24.9139 76.0704 25.6578 75.3203L29.4953 71.4491C29.4953 71.4491 29.4953 71.4491 29.4953 71.4489C30.2389 70.6987 31.2278 70.2854 32.2796 70.2854C33.3312 70.2854 34.3202 70.6985 35.0639 71.4489C36.5993 72.9978 36.5993 75.5177 35.0639 77.0664L31.2266 80.9375C29.691 82.4862 27.1923 82.4862 25.6578 80.9377ZM34.3755 89.7319C33.6316 88.9817 33.2221 87.984 33.2221 86.9231C33.2221 85.8621 33.6316 84.8646 34.3755 84.1144L38.2129 80.2432C38.2129 80.2432 38.2129 80.2432 38.2129 80.243C38.9566 79.4928 39.9454 79.0795 40.9972 79.0795C42.0491 79.0795 43.0379 79.4926 43.7816 80.243C45.317 81.7921 45.317 84.312 43.7816 85.8607L39.9441 89.7319C38.4089 91.2808 35.9109 91.2808 34.3755 89.7319ZM52.4995 94.6553L48.662 98.5267C47.9183 99.2769 46.9295 99.6902 45.8777 99.6902C44.826 99.6902 43.837 99.2771 43.0933 98.5267C41.5579 96.9775 41.5579 94.4576 43.0933 92.909L46.9308 89.0378C46.9308 89.0378 46.9308 89.0378 46.9308 89.0376C47.6745 88.2874 48.6633 87.8741 49.7151 87.8741C50.7667 87.8741 51.7558 88.2872 52.4995 89.0376C53.2433 89.7878 53.6528 90.7855 53.6528 91.8463C53.653 92.9078 53.2433 93.9051 52.4995 94.6553ZM94.0774 73.164C93.3337 73.9144 92.3447 74.3275 91.2931 74.3275C90.2412 74.3275 89.2524 73.9144 88.5088 73.164L79.2402 63.8142C79.2398 63.8137 79.2396 63.8135 79.2391 63.8131L70.5221 55.0196C69.6524 54.1425 68.2428 54.1425 67.3729 55.0196C66.5034 55.8967 66.5034 57.3192 67.3729 58.1963L85.3595 76.3402C86.8949 77.8893 86.8949 80.4092 85.3595 81.9579C84.6158 82.7083 83.6268 83.1214 82.5752 83.1214C81.5234 83.1214 80.5345 82.7083 79.7909 81.9579L61.8043 63.8137C60.9346 62.9369 59.5249 62.9369 58.655 63.8137C57.7855 64.6908 57.7855 66.1133 58.655 66.9906L67.3711 75.783C67.3718 75.7836 67.3724 75.7845 67.3731 75.7852L76.6418 85.1348C78.1773 86.6839 78.1773 89.204 76.6421 90.7527C75.1064 92.3016 72.608 92.3016 71.0732 90.7527L61.8045 81.4027C61.633 81.23 61.4404 81.0925 61.2354 80.9878L58.5918 78.321C57.7221 77.4442 56.3124 77.4442 55.4425 78.321C54.573 79.1981 54.573 80.6206 55.4425 81.4979L67.8449 94.0087C69.3804 95.5578 69.3804 98.0777 67.8449 99.6264C67.1012 100.377 66.1122 100.79 65.0606 100.79C64.0088 100.79 63.02 100.377 62.2763 99.6264L57.5569 94.8658C57.9165 93.9141 58.1066 92.895 58.1066 91.8461C58.1066 89.5852 57.2338 87.4595 55.6489 85.8607C54.0638 84.2619 51.9566 83.3815 49.7156 83.3815C49.6022 83.3815 49.4896 83.3853 49.3769 83.3898C49.4662 81.1109 48.6522 78.8024 46.9313 77.0664C45.3462 75.4676 43.239 74.5871 40.9979 74.5871C40.8846 74.5871 40.7719 74.591 40.6593 74.5954C40.7488 72.3166 39.9345 70.008 38.2136 68.272C36.6285 66.6732 34.5213 65.7928 32.2803 65.7928C32.1669 65.7928 32.0543 65.7966 31.9416 65.8011C32.0311 63.5222 31.2169 61.2137 29.4959 59.4777C26.2242 56.1772 20.9003 56.1775 17.6286 59.4777L13.7913 63.3486C13.3073 63.8369 12.8969 64.3712 12.5558 64.9368C7.32539 59.3326 4.45446 52.0469 4.45446 44.3154C4.45446 36.2737 7.55873 28.7131 13.1959 23.0269C18.8327 17.3407 26.3278 14.209 34.2993 14.209C41.5436 14.209 48.3939 16.7956 53.8138 21.5353L40.13 35.3391C38.3229 37.1623 37.3277 39.586 37.3277 42.1641C37.3277 44.7424 38.3229 47.1661 40.13 48.9893C41.9954 50.8708 44.4457 51.8117 46.8959 51.8117C49.346 51.8117 51.7963 50.8711 53.6617 48.9893L59.7251 42.8727H67.5744C68.2225 42.8727 68.8636 42.828 69.4968 42.7487L94.0787 67.5459C95.6126 69.0954 95.6126 71.6156 94.0774 73.164Z" fill="#77BC1F"/>
</svg>
