<svg width="197" height="198" viewBox="0 0 197 198" fill="none" xmlns="http://www.w3.org/2000/svg">
<circle cx="98.5" cy="98.5" r="98.5" fill="#7AFFBB"/>
<g filter="url(#filter0_d)">
<circle cx="98.5909" cy="98.5909" r="80.5909" fill="white"/>
</g>
<path d="M100.375 132H97.625V134.75H100.375V132Z" fill="#01512C"/>
<path d="M64.625 88H69.6847L78.9511 94.6193C79.1755 94.7794 79.4429 94.8684 79.7186 94.8747C79.9942 94.881 80.2654 94.8043 80.4968 94.6545C80.7283 94.5048 80.9095 94.2889 81.0167 94.0349C81.1239 93.7809 81.1523 93.5005 81.0982 93.2302L80.0522 88H89.375C91.1977 87.9979 92.9452 87.2729 94.234 85.984C95.5229 84.6952 96.2479 82.9477 96.25 81.125V64.625C96.2479 62.8023 95.5229 61.0549 94.234 59.766C92.9452 58.4772 91.1977 57.7521 89.375 57.75H64.625C62.8023 57.7521 61.0549 58.4772 59.766 59.766C58.4772 61.0549 57.7521 62.8023 57.75 64.625V81.125C57.7521 82.9477 58.4772 84.6952 59.766 85.984C61.0549 87.2729 62.8023 87.9979 64.625 88ZM60.5 64.625C60.5012 63.5314 60.9362 62.4829 61.7095 61.7095C62.4829 60.9362 63.5314 60.5012 64.625 60.5H89.375C90.4686 60.5012 91.5171 60.9362 92.2905 61.7095C93.0638 62.4829 93.4988 63.5314 93.5 64.625V81.125C93.4988 82.2186 93.0638 83.2671 92.2905 84.0405C91.5171 84.8138 90.4686 85.2488 89.375 85.25H78.375C78.1716 85.25 77.9707 85.2952 77.7868 85.3822C77.6029 85.4693 77.4406 85.596 77.3116 85.7534C77.1827 85.9107 77.0902 86.0947 77.041 86.2921C76.9917 86.4895 76.9869 86.6954 77.0268 86.8948L77.7198 90.3598L70.9239 85.5058C70.6907 85.3394 70.4114 85.25 70.125 85.25H64.625C63.5314 85.2488 62.4829 84.8138 61.7095 84.0405C60.9362 83.2671 60.5012 82.2186 60.5 81.125V64.625Z" fill="#01512C"/>
<path d="M67.3757 71.4999V79.7499C67.3757 80.1145 67.5206 80.4643 67.7785 80.7221C68.0363 80.98 68.386 81.1249 68.7507 81.1249H79.7507C80.1154 81.1249 80.4651 80.98 80.723 80.7221C80.9809 80.4643 81.1257 80.1145 81.1257 79.7499V79.2248L84.6358 80.9798C84.8454 81.0846 85.0784 81.1341 85.3125 81.1236C85.5467 81.1131 85.7742 81.0429 85.9736 80.9196C86.173 80.7964 86.3376 80.6242 86.4517 80.4195C86.5658 80.2148 86.6257 79.9843 86.6257 79.7499V71.4999C86.6257 71.2655 86.5658 71.035 86.4517 70.8302C86.3376 70.6255 86.173 70.4534 85.9736 70.3301C85.7742 70.2069 85.5467 70.1367 85.3125 70.1261C85.0784 70.1156 84.8454 70.1651 84.6358 70.2699L81.1257 72.025V71.4999C81.1257 71.477 81.1139 71.4579 81.1127 71.4354C81.5595 70.9859 81.9131 70.4524 82.1529 69.8657C82.3927 69.279 82.5141 68.6506 82.5101 68.0168C82.5061 67.383 82.3768 66.7562 82.1296 66.1726C81.8823 65.5889 81.5221 65.06 81.0696 64.6161C80.6171 64.1723 80.0812 63.8224 79.4929 63.5865C78.9046 63.3506 78.2754 63.2334 77.6417 63.2416C77.0079 63.2499 76.382 63.3834 75.8 63.6346C75.2181 63.8857 74.6915 64.2495 74.2507 64.705C73.8099 64.2495 73.2834 63.8857 72.7014 63.6346C72.1195 63.3834 71.4936 63.2499 70.8598 63.2416C70.226 63.2334 69.5968 63.3506 69.0085 63.5865C68.4202 63.8224 67.8844 64.1723 67.4319 64.6161C66.9794 65.06 66.6191 65.5889 66.3719 66.1726C66.1247 66.7562 65.9953 67.383 65.9913 68.0168C65.9873 68.6506 66.1087 69.279 66.3486 69.8657C66.5884 70.4524 66.9419 70.9859 67.3888 71.4354C67.3876 71.4579 67.3757 71.477 67.3757 71.4999ZM78.3757 78.3749H70.1257V72.8749H78.3757V78.3749ZM83.8757 73.7248V77.525L81.1257 76.15V75.0998L83.8757 73.7248ZM77.6882 65.9999C78.0961 65.9999 78.4949 66.1208 78.8341 66.3475C79.1733 66.5741 79.4376 66.8962 79.5937 67.2731C79.7498 67.65 79.7907 68.0647 79.7111 68.4647C79.6315 68.8648 79.4351 69.2323 79.1466 69.5208C78.8582 69.8092 78.4907 70.0057 78.0906 70.0852C77.6905 70.1648 77.2758 70.124 76.8989 69.9679C76.5221 69.8118 76.1999 69.5474 75.9733 69.2082C75.7467 68.8691 75.6257 68.4703 75.6257 68.0624C75.6263 67.5155 75.8438 66.9913 76.2305 66.6046C76.6171 66.218 77.1414 66.0005 77.6882 65.9999ZM70.8132 65.9999C71.2211 65.9999 71.6199 66.1208 71.9591 66.3475C72.2983 66.5741 72.5626 66.8962 72.7187 67.2731C72.8748 67.65 72.9157 68.0647 72.8361 68.4647C72.7565 68.8648 72.5601 69.2323 72.2716 69.5208C71.9832 69.8092 71.6157 70.0057 71.2156 70.0852C70.8155 70.1648 70.4008 70.124 70.0239 69.9679C69.6471 69.8118 69.3249 69.5474 69.0983 69.2082C68.8717 68.8691 68.7507 68.4703 68.7507 68.0624C68.7513 67.5155 68.9688 66.9913 69.3555 66.6046C69.7421 66.218 70.2664 66.0005 70.8132 65.9999Z" fill="#01512C"/>
<path d="M133.375 68.75H120.861C120.542 67.1984 119.698 65.8041 118.471 64.8023C117.244 63.8004 115.709 63.2522 114.125 63.25H99V66H114.125C114.975 66.0026 115.804 66.2683 116.497 66.7607C117.19 67.2531 117.714 67.948 117.997 68.75H105.875C104.052 68.7521 102.305 69.4772 101.016 70.766C99.7272 72.0549 99.0021 73.8023 99 75.625V92.125C99.0021 93.9477 99.7272 95.6952 101.016 96.984C102.305 98.2729 104.052 98.9979 105.875 99H116.573L115.527 104.23C115.473 104.501 115.501 104.781 115.608 105.035C115.716 105.289 115.897 105.505 116.128 105.655C116.36 105.804 116.631 105.881 116.906 105.875C117.182 105.868 117.449 105.779 117.674 105.619L118.25 105.208V110.806L114.41 106.965C113.831 106.386 113.143 105.927 112.386 105.614C111.63 105.3 110.819 105.139 110 105.139C109.181 105.139 108.37 105.3 107.614 105.614C106.857 105.927 106.169 106.386 105.59 106.965C105.011 107.544 104.552 108.232 104.239 108.989C103.925 109.745 103.764 110.556 103.764 111.375C103.764 112.194 103.925 113.005 104.239 113.761C104.552 114.518 105.011 115.206 105.59 115.785L113.728 123.922C113.202 124.73 112.769 125.595 112.436 126.5H77V133.375C77.0021 135.198 77.7272 136.945 79.016 138.234C80.3049 139.523 82.0523 140.248 83.875 140.25H132C132.365 140.25 132.714 140.105 132.972 139.847C133.23 139.589 133.375 139.24 133.375 138.875V112.805C133.38 109.173 132.073 105.661 129.693 102.918L126.767 99.1236L126.94 99H133.375C135.198 98.9979 136.945 98.2729 138.234 96.984C139.523 95.6952 140.248 93.9477 140.25 92.125V75.625C140.248 73.8023 139.523 72.0549 138.234 70.766C136.945 69.4772 135.198 68.7521 133.375 68.75ZM105.875 71.5H133.375C134.469 71.5012 135.517 71.9362 136.29 72.7095C137.064 73.4829 137.499 74.5314 137.5 75.625V89.5558L131.388 85.481C131.162 85.3306 130.896 85.2504 130.625 85.2504C130.354 85.2504 130.088 85.3306 129.862 85.481L122.422 90.4406L112.2 82.775C111.962 82.5965 111.673 82.5 111.376 82.5C111.078 82.5 110.789 82.5965 110.551 82.775L101.75 89.375V75.625C101.751 74.5314 102.186 73.4829 102.96 72.7095C103.733 71.9362 104.781 71.5012 105.875 71.5ZM79.75 133.375V129.25H111.67C111.226 132.073 111.696 134.964 113.012 137.5H83.875C82.7814 137.499 81.7329 137.064 80.9595 136.29C80.1862 135.517 79.7512 134.469 79.75 133.375ZM127.569 104.662C129.539 106.917 130.625 109.81 130.625 112.805V137.5H116.194C115.259 136.176 114.639 134.656 114.38 133.055C114.121 131.455 114.231 129.817 114.701 128.266C114.996 127.262 115.441 126.308 116.022 125.438L116.641 124.517C116.819 124.252 116.899 123.934 116.868 123.617C116.837 123.3 116.697 123.003 116.472 122.778L107.534 113.84C107.211 113.517 106.954 113.132 106.779 112.709C106.603 112.286 106.513 111.833 106.513 111.375C106.513 110.45 106.881 109.564 107.535 108.91C108.188 108.256 109.075 107.889 110 107.889C110.458 107.889 110.911 107.979 111.334 108.154C111.757 108.33 112.141 108.587 112.465 108.91L124.153 120.598L126.097 118.654L121 113.556V103.243L124.528 100.723L127.569 104.662ZM133.375 96.25H126.5C126.214 96.25 125.934 96.3394 125.701 96.5058L118.905 101.36L119.598 97.8948C119.638 97.6954 119.633 97.4895 119.584 97.2921C119.535 97.0947 119.442 96.9107 119.313 96.7534C119.184 96.596 119.022 96.4693 118.838 96.3822C118.654 96.2952 118.453 96.25 118.25 96.25H105.875C104.894 96.2474 103.946 95.8949 103.202 95.2558C102.457 94.6167 101.965 93.7329 101.814 92.7635L111.375 85.5938L121.55 93.225C121.777 93.3958 122.052 93.4919 122.337 93.4998C122.621 93.5077 122.901 93.4272 123.137 93.2693L130.625 88.2772L137.431 92.8147C137.269 93.7739 136.773 94.6447 136.031 95.2734C135.288 95.902 134.348 96.248 133.375 96.25Z" fill="#01512C"/>
<path d="M122.375 85.25C123.463 85.25 124.526 84.9274 125.431 84.3231C126.335 83.7187 127.04 82.8598 127.456 81.8548C127.873 80.8498 127.982 79.7439 127.769 78.677C127.557 77.6101 127.033 76.6301 126.264 75.8609C125.495 75.0917 124.515 74.5679 123.448 74.3557C122.381 74.1435 121.275 74.2524 120.27 74.6687C119.265 75.0849 118.406 75.7899 117.802 76.6944C117.198 77.5988 116.875 78.6622 116.875 79.75C116.877 81.2082 117.457 82.6063 118.488 83.6374C119.519 84.6685 120.917 85.2485 122.375 85.25ZM122.375 77C122.919 77 123.451 77.1613 123.903 77.4635C124.355 77.7656 124.708 78.1951 124.916 78.6976C125.124 79.2001 125.178 79.7531 125.072 80.2865C124.966 80.8199 124.704 81.31 124.32 81.6945C123.935 82.0791 123.445 82.3411 122.912 82.4472C122.378 82.5533 121.825 82.4988 121.323 82.2907C120.82 82.0825 120.391 81.7301 120.088 81.2778C119.786 80.8256 119.625 80.2939 119.625 79.75C119.626 79.0209 119.916 78.322 120.431 77.8064C120.947 77.2909 121.646 77.0009 122.375 77Z" fill="#01512C"/>
<path d="M64.625 123.75H86.625C88.4477 123.748 90.1951 123.023 91.484 121.734C92.7729 120.445 93.4979 118.698 93.5 116.875V108.625C93.4979 106.802 92.7729 105.055 91.484 103.766C90.1951 102.477 88.4477 101.752 86.625 101.75H85.6367L86.5834 97.9586C86.6487 97.6972 86.6357 97.4225 86.5462 97.1684C86.4566 96.9144 86.2945 96.6922 86.0798 96.5296C85.8651 96.3669 85.6074 96.2709 85.3386 96.2534C85.0698 96.2359 84.8018 96.2978 84.5678 96.4313L75.2598 101.75H64.625C62.8023 101.752 61.0549 102.477 59.766 103.766C58.4772 105.055 57.7521 106.802 57.75 108.625V116.875C57.7521 118.698 58.4772 120.445 59.766 121.734C61.0549 123.023 62.8023 123.748 64.625 123.75ZM60.5 108.625C60.5012 107.531 60.9362 106.483 61.7095 105.709C62.4829 104.936 63.5314 104.501 64.625 104.5H75.625C75.8643 104.5 76.0994 104.437 76.3072 104.319L83.1351 100.417L82.5416 102.791C82.4909 102.994 82.487 103.205 82.5303 103.41C82.5736 103.614 82.6629 103.806 82.7914 103.971C82.92 104.136 83.0844 104.269 83.2721 104.361C83.4599 104.452 83.6661 104.5 83.875 104.5H86.625C87.7186 104.501 88.7671 104.936 89.5405 105.709C90.3138 106.483 90.7488 107.531 90.75 108.625V116.875C90.7488 117.969 90.3138 119.017 89.5405 119.79C88.7671 120.564 87.7186 120.999 86.625 121H64.625C63.5314 120.999 62.4829 120.564 61.7095 119.79C60.9362 119.017 60.5012 117.969 60.5 116.875V108.625Z" fill="#01512C"/>
<path d="M78.375 108.625H63.25V111.375H78.375V108.625Z" fill="#01512C"/>
<path d="M88 108.625H81.125V111.375H88V108.625Z" fill="#01512C"/>
<path d="M88 114.125H63.25V116.875H88V114.125Z" fill="#01512C"/>
<defs>
<filter id="filter0_d" x="4" y="6" width="191.182" height="191.182" filterUnits="userSpaceOnUse" color-interpolation-filters="sRGB">
<feFlood flood-opacity="0" result="BackgroundImageFix"/>
<feColorMatrix in="SourceAlpha" type="matrix" values="0 0 0 0 0 0 0 0 0 0 0 0 0 0 0 0 0 0 127 0"/>
<feOffset dx="1" dy="3"/>
<feGaussianBlur stdDeviation="7.5"/>
<feColorMatrix type="matrix" values="0 0 0 0 0 0 0 0 0 0.2625 0 0 0 0 0.0735 0 0 0 0.4 0"/>
<feBlend mode="normal" in2="BackgroundImageFix" result="effect1_dropShadow"/>
<feBlend mode="normal" in="SourceGraphic" in2="effect1_dropShadow" result="shape"/>
</filter>
</defs>
</svg>
