<svg width="197" height="198" viewBox="0 0 197 198" fill="none" xmlns="http://www.w3.org/2000/svg">
<circle cx="98.5" cy="98.5" r="98.5" fill="#77BC1F"/>
<g filter="url(#filter0_d)">
<circle cx="98.5001" cy="98.5001" r="80.5909" fill="white"/>
</g>
<path d="M115.403 103.247L106.816 99.4302C106.209 99.1607 105.817 98.5576 105.817 97.894V95.5359C108.702 93.2375 110.556 89.6982 110.556 85.732V82.4126C111.506 81.8875 112.135 80.8728 112.135 79.7363V79.4142C112.135 72.5031 106.513 66.8804 99.6015 66.8804H96.4427C89.5316 66.8804 83.9089 72.5031 83.9089 79.4142V82.3371C83.9089 83.3361 84.3389 84.241 85.0882 84.8201C85.2153 84.9182 85.3491 85.0045 85.4884 85.0792V85.7318C85.4884 89.698 87.3422 93.2373 90.2266 95.5355V97.8938C90.2266 98.5574 89.8347 99.1605 89.2282 99.43L80.6412 103.247C77.8289 104.496 76.0117 107.293 76.0117 110.37V129.956C76.0117 130.772 76.6734 131.433 77.4895 131.433C78.3056 131.433 78.9672 130.772 78.9672 129.956V110.37C78.9672 110.199 78.9794 110.03 78.9971 109.862L82.9539 113.819C83.5697 114.435 83.9089 115.253 83.9089 116.124V129.956C83.9089 130.772 84.5706 131.434 85.3867 131.434C86.2028 131.434 86.8644 130.772 86.8644 129.956V116.124C86.8644 114.464 86.218 112.903 85.0439 111.729L80.3267 107.012C80.7517 106.571 81.2616 106.205 81.8417 105.947L90.2839 102.195L96.5446 108.456V129.956C96.5446 130.772 97.2062 131.433 98.0223 131.433C98.8384 131.433 99.5001 130.772 99.5001 129.956V108.456L105.761 102.195L114.203 105.947C114.783 106.205 115.293 106.571 115.718 107.012L111.001 111.729C109.827 112.903 109.18 114.464 109.18 116.124V129.956C109.18 130.772 109.842 131.434 110.658 131.434C111.474 131.434 112.136 130.772 112.136 129.956V116.124C112.136 115.253 112.475 114.435 113.091 113.819L117.047 109.862C117.065 110.03 117.077 110.199 117.077 110.37V129.956C117.077 130.772 117.739 131.433 118.555 131.433C119.371 131.433 120.033 130.772 120.033 129.956V110.37C120.032 107.293 118.215 104.496 115.403 103.247ZM98.0217 105.754L92.5283 100.261C92.946 99.5577 93.1819 98.7445 93.1819 97.894V97.2926C94.672 97.9188 96.3072 98.2658 98.0219 98.2658C99.7367 98.2658 101.372 97.919 102.862 97.2928V97.894C102.862 98.7447 103.097 99.5577 103.515 100.261L98.0217 105.754ZM98.0219 95.3101C92.7405 95.3103 88.4436 91.0134 88.4436 85.732V85.0674C89.3657 84.7019 90.2658 84.1203 91.1274 83.3252C91.727 82.7718 91.7646 81.8369 91.2109 81.2371C90.6575 80.6375 89.7228 80.5999 89.1228 81.1533C88.3837 81.8357 87.6453 82.2764 86.9285 82.4636C86.9111 82.4681 86.8983 82.4701 86.8893 82.4709C86.8786 82.4502 86.8642 82.4069 86.8642 82.3373V79.4143C86.8642 74.1329 91.1611 69.836 96.4425 69.836H99.6014C104.883 69.836 109.18 74.1329 109.18 79.4143V79.7365C109.18 79.7844 109.151 79.8259 109.113 79.8334C100.264 81.5811 95.8258 78.2873 94.3284 76.7899C93.7513 76.2128 92.8156 76.2128 92.2387 76.7899C91.6616 77.367 91.6616 78.3027 92.2387 78.8796C96.8275 83.4685 103.524 83.5512 107.6 83.0614V85.7318C107.6 91.0132 103.303 95.3101 98.0219 95.3101Z" fill="#01512C"/>
<path d="M74.229 95.2092V92.0498C74.229 88.1947 72.2256 84.801 69.2069 82.8481C69.3932 82.2501 69.4906 81.6237 69.4906 80.9938C69.4906 77.5662 66.7022 74.7778 63.2746 74.7778C59.8471 74.7778 57.0587 77.5664 57.0587 80.9938C57.0587 81.6316 57.1552 82.2518 57.342 82.8484C54.3235 84.8012 52.3203 88.1949 52.3203 92.0498V95.2086C52.3203 98.9418 54.1986 102.243 57.0585 104.221V107.471C57.0585 108.112 56.7024 108.688 56.1293 108.975L51.0181 111.53C48.8986 112.59 47.582 114.721 47.582 117.09V129.956C47.582 130.772 48.2437 131.434 49.0598 131.434C49.8759 131.434 50.5375 130.772 50.5375 129.956V117.73L52.9448 120.137C53.5606 120.753 53.8999 121.571 53.8999 122.443V129.956C53.8999 130.772 54.5615 131.434 55.3776 131.434C56.1937 131.434 56.8553 130.772 56.8553 129.956V122.443C56.8553 120.782 56.2087 119.221 55.0348 118.047L51.6842 114.697C51.6681 114.681 51.6507 114.667 51.6342 114.651C51.8444 114.466 52.0803 114.304 52.34 114.174L57.4512 111.619C57.713 111.488 57.9567 111.333 58.1839 111.161L61.7969 114.774V129.957C61.7969 130.773 62.4585 131.434 63.2746 131.434C64.0907 131.434 64.7524 130.773 64.7524 129.957V114.774L68.3655 111.161C68.5929 111.333 68.8364 111.488 69.0983 111.618L70.5077 112.323C70.7199 112.429 70.9453 112.48 71.1675 112.48C71.7096 112.48 72.2315 112.18 72.4904 111.663C72.8555 110.933 72.5595 110.045 71.8295 109.68L70.4202 108.975C69.8468 108.689 69.4908 108.112 69.4908 107.472V104.222C72.3507 102.243 74.229 98.9422 74.229 95.2092ZM63.2746 77.7333C65.0725 77.7333 66.5351 79.1961 66.5351 80.9938C66.5351 81.1918 66.5174 81.3859 66.4835 81.576C65.468 81.2643 64.3908 81.0955 63.2746 81.0955C62.16 81.0955 61.0842 81.2637 60.0703 81.5746C60.0362 81.3845 60.0141 81.1914 60.0141 80.9938C60.0141 79.1959 61.4767 77.7333 63.2746 77.7333ZM63.2746 84.0511C67.6852 84.0511 71.2735 87.6395 71.2735 92.05V92.5856C65.1212 94.4692 61.4546 89.7891 61.298 89.584C61.0409 89.2413 60.6478 89.027 60.2206 88.9966C59.7935 88.9667 59.3738 89.1229 59.071 89.4258C57.6604 90.8363 56.2788 91.5167 55.281 91.8451C55.3904 87.5289 58.9328 84.0511 63.2746 84.0511ZM63.2746 112.072L59.8599 108.657C59.9596 108.276 60.0141 107.879 60.0141 107.471V105.667C61.0444 105.989 62.1397 106.163 63.2746 106.163C64.4095 106.163 65.5048 105.989 66.5351 105.667V107.471C66.5351 107.879 66.5897 108.276 66.6894 108.657L63.2746 112.072ZM63.2746 103.208C58.8641 103.208 55.2757 99.6192 55.2757 95.2086V94.9025C56.4542 94.6317 58.2014 94.0026 60.0242 92.5367C60.6691 93.1451 61.5908 93.8915 62.7645 94.5316C64.1528 95.2888 66.0701 95.9893 68.412 95.9893C69.302 95.9893 70.2543 95.8858 71.2609 95.6482C71.0318 99.8552 67.5376 103.208 63.2746 103.208Z" fill="#01512C"/>
<path d="M145.026 108.371L136.756 104.236C136.183 103.95 135.827 103.374 135.827 102.733V100.639C137.763 98.9198 138.986 96.4151 138.986 93.6291V91.9471C139.02 91.9471 139.053 91.948 139.087 91.948C139.903 91.948 140.565 91.2864 140.565 90.4703V87.3115C140.565 82.1422 136.359 77.9365 131.19 77.9365H128.031C122.862 77.9365 118.656 82.1422 118.656 87.3115V90.4703C118.656 91.2864 119.318 91.948 120.134 91.948C120.146 91.948 120.182 91.9476 120.236 91.9455V93.6291C120.236 96.4153 121.459 98.92 123.395 100.639V102.733C123.395 103.374 123.039 103.95 122.465 104.237C121.735 104.601 121.439 105.489 121.804 106.219C122.063 106.737 122.585 107.036 123.127 107.036C123.349 107.036 123.575 106.986 123.787 106.88C124.049 106.749 124.293 106.594 124.52 106.423L128.133 110.036V129.956C128.133 130.772 128.795 131.434 129.611 131.434C130.427 131.434 131.088 130.772 131.088 129.956V110.035L134.701 106.422C134.929 106.594 135.172 106.749 135.434 106.88L143.437 110.881L141.009 113.308C139.835 114.482 139.189 116.043 139.189 117.704V129.956C139.189 130.772 139.85 131.434 140.666 131.434C141.483 131.434 142.144 130.772 142.144 129.956V117.704C142.144 116.833 142.483 116.014 143.099 115.398L145.398 113.099C145.468 113.366 145.506 113.645 145.506 113.931V129.956C145.506 130.772 146.168 131.434 146.984 131.434C147.8 131.434 148.462 130.772 148.462 129.956V113.931C148.462 111.562 147.145 109.431 145.026 108.371ZM121.612 88.6885V87.3113H121.612C121.612 83.7716 124.492 80.8918 128.031 80.8918H131.19C134.73 80.8918 137.61 83.7716 137.61 87.3113V88.9528C131.186 88.6062 127.309 86.1064 127.271 86.0818C127.021 85.9151 126.736 85.8336 126.452 85.8336C126.071 85.8336 125.692 85.9809 125.407 86.2664C123.993 87.6803 122.608 88.3609 121.612 88.6885ZM129.611 107.333L126.196 103.919C126.296 103.538 126.35 103.14 126.35 102.733V102.418C127.366 102.796 128.464 103.004 129.611 103.004C130.757 103.004 131.855 102.796 132.871 102.418V102.733C132.871 103.14 132.925 103.538 133.025 103.919L129.611 107.333ZM129.611 100.049C126.071 100.049 123.191 97.169 123.191 93.6291V91.2468C124.226 90.8332 125.432 90.1757 126.659 89.1303C128.211 89.9377 131.458 91.3333 136.03 91.7944V93.6291C136.03 97.1688 133.15 100.049 129.611 100.049Z" fill="#01512C"/>
<defs>
<filter id="filter0_d" x="3.90918" y="5.90918" width="191.182" height="191.182" filterUnits="userSpaceOnUse" color-interpolation-filters="sRGB">
<feFlood flood-opacity="0" result="BackgroundImageFix"/>
<feColorMatrix in="SourceAlpha" type="matrix" values="0 0 0 0 0 0 0 0 0 0 0 0 0 0 0 0 0 0 127 0"/>
<feOffset dx="1" dy="3"/>
<feGaussianBlur stdDeviation="7.5"/>
<feColorMatrix type="matrix" values="0 0 0 0 0 0 0 0 0 0.2625 0 0 0 0 0.0735 0 0 0 0.4 0"/>
<feBlend mode="normal" in2="BackgroundImageFix" result="effect1_dropShadow"/>
<feBlend mode="normal" in="SourceGraphic" in2="effect1_dropShadow" result="shape"/>
</filter>
</defs>
</svg>
