<svg width="197" height="198" viewBox="0 0 197 198" fill="none" xmlns="http://www.w3.org/2000/svg">
<circle cx="98.5" cy="98.5" r="98.5" fill="#C9E4A5"/>
<g filter="url(#filter0_d)">
<circle cx="98.5909" cy="98.5909" r="80.5909" fill="white"/>
</g>
<g clip-path="url(#clip0)">
<path d="M79.3589 88.902C78.9051 88.902 78.4683 88.9759 78.0589 89.1104V87.615C78.0589 85.315 76.1879 83.4438 73.888 83.4438C73.389 83.4438 72.9103 83.5321 72.4664 83.6936C72.0177 81.8745 70.3728 80.5211 68.417 80.5211C66.4612 80.5211 64.8163 81.8743 64.3676 83.6936C63.9237 83.5321 63.445 83.4438 62.946 83.4438C60.6461 83.4438 58.7749 85.3148 58.7749 87.6041L58.6601 102.833L56.6434 100.919C55.1757 99.526 52.9106 99.4684 51.374 100.785C49.7438 102.183 49.5403 104.657 50.9202 106.302C51.289 106.741 61.6849 119.171 62.0587 119.537C60.6813 120.445 59.77 122.006 59.77 123.775V146.564C59.77 147.357 60.4128 148 61.2056 148C61.9984 148 62.6411 147.357 62.6411 146.564V129.604H80.6584V146.564C80.6584 147.357 81.3011 148 82.0939 148C82.8867 148 83.5295 147.357 83.5295 146.564V123.775C83.5295 122.077 82.6896 120.571 81.4043 119.65C82.7126 118.395 83.5295 116.631 83.5295 114.679V93.0729C83.5301 90.7732 81.6589 88.902 79.3589 88.902V88.902ZM80.659 126.733H62.6415V123.776C62.6415 122.561 63.6297 121.573 64.8446 121.573H78.4559C79.6707 121.573 80.659 122.561 80.659 123.776V126.733ZM80.659 114.679C80.659 116.897 78.8546 118.701 76.6366 118.701H66.9462C65.7542 118.701 64.6308 118.178 63.8646 117.264L53.1202 104.457C52.7471 104.012 52.8023 103.343 53.2429 102.965C53.6582 102.61 54.2709 102.625 54.6675 103.001L58.1234 106.282C58.7043 106.833 59.5558 106.987 60.2931 106.673C61.0303 106.36 61.5103 105.64 61.5166 104.839L61.6464 87.6152C61.6464 86.8983 62.2296 86.3151 62.9464 86.3151C63.6632 86.3151 64.2464 86.8983 64.2464 87.6152V99.25C64.2464 100.043 64.8892 100.686 65.682 100.686C66.4748 100.686 67.1175 100.043 67.1175 99.25V84.6924C67.1175 83.9756 67.7008 83.3924 68.4176 83.3924C69.1344 83.3924 69.7176 83.9756 69.7176 84.6924V99.25C69.7176 100.043 70.3603 100.686 71.1532 100.686C71.946 100.686 72.5887 100.043 72.5887 99.25V87.6152C72.5887 86.8983 73.1719 86.3151 73.8887 86.3151C74.6055 86.3151 75.1886 86.8983 75.1886 87.6152V99.25C75.1886 100.043 75.8313 100.686 76.6241 100.686C77.4169 100.686 78.0597 100.043 78.0597 99.25V93.0731C78.0597 92.3563 78.6429 91.7731 79.3597 91.7731C80.0765 91.7731 80.6597 92.3563 80.6597 93.0731V114.679H80.659ZM109.014 90.9862C109.471 90.5496 120.356 77.5217 120.793 77.0005C122.219 75.3014 122.008 72.745 120.325 71.3016C118.738 69.9411 116.397 70.0004 114.881 71.4396L112.634 73.5719L112.512 57.3885C112.512 55.0101 110.577 53.0749 108.199 53.0749C107.653 53.0749 107.131 53.1779 106.65 53.3638C106.216 51.4409 104.495 50 102.443 50C100.391 50 98.6699 51.4409 98.236 53.3638C97.7548 53.1779 97.2328 53.0749 96.6869 53.0749C94.3085 53.0749 92.3734 55.0099 92.3734 57.3885V59.0661C91.9221 58.9056 91.4369 58.8173 90.931 58.8173C88.5526 58.8173 86.6174 60.7522 86.6174 63.1309V85.8619C86.6174 87.9268 87.4952 89.7897 88.8956 91.1005C87.5205 92.051 86.6174 93.6378 86.6174 95.4322V146.564C86.6174 147.357 87.2602 148 88.053 148C88.8458 148 89.4885 147.357 89.4885 146.564V101.489H108.594V146.564C108.594 147.357 109.236 148 110.029 148C110.822 148 111.465 147.357 111.465 146.564V95.4322C111.465 93.5637 110.485 91.9206 109.014 90.9862V90.9862ZM89.4885 63.1307C89.4885 62.3354 90.1355 61.6882 90.931 61.6882C91.7265 61.6882 92.3734 62.3352 92.3734 63.1307V69.6293C92.3734 70.4221 93.0162 71.0648 93.809 71.0648C94.6018 71.0648 95.2445 70.4221 95.2445 69.6293V57.3885C95.2445 56.5932 95.8916 55.946 96.6869 55.946C97.4822 55.946 98.1294 56.593 98.1294 57.3885V69.6293C98.1294 70.4221 98.7721 71.0648 99.5649 71.0648C100.358 71.0648 101 70.4221 101 69.6293V57.3885V54.3135C101 53.5182 101.647 52.8711 102.443 52.8711C103.238 52.8711 103.885 53.518 103.885 54.3135V57.3885V69.6293C103.885 70.4221 104.528 71.0648 105.321 71.0648C106.114 71.0648 106.756 70.4221 106.756 69.6293V57.3885C106.756 56.5932 107.404 55.946 108.199 55.946C108.994 55.946 109.641 56.593 109.641 57.3992L109.778 75.5778C109.784 76.3788 110.265 77.0987 111.002 77.4121C111.739 77.7256 112.591 77.5717 113.172 77.0202L116.858 73.5219C117.303 73.0995 117.99 73.0821 118.456 73.4815C118.951 73.9055 119.013 74.6562 118.594 75.1552L107.29 88.6298C106.47 89.6077 105.267 90.1685 103.991 90.1685H93.7956C91.4208 90.1685 89.4889 88.2367 89.4889 85.8619V63.1307H89.4885ZM108.594 98.6183H89.4887V95.4322C89.4887 94.1128 90.5619 93.0396 91.8813 93.0396H106.201C107.521 93.0396 108.594 94.1128 108.594 95.4322V98.6183ZM147.08 106.302C148.46 104.657 148.256 102.183 146.626 100.785C145.09 99.4688 142.824 99.5262 141.357 100.919L139.34 102.833L139.225 87.6152C139.225 85.3152 137.354 83.444 135.054 83.444C134.555 83.444 134.076 83.5323 133.633 83.6938C133.184 81.8745 131.539 80.5213 129.583 80.5213C127.627 80.5213 125.982 81.8747 125.534 83.6938C125.09 83.5325 124.611 83.444 124.112 83.444C121.812 83.444 119.941 85.315 119.941 87.6152V89.1106C119.532 88.9761 119.095 88.9022 118.641 88.9022C116.341 88.9022 114.47 90.7734 114.47 93.0733V114.679C114.47 116.631 115.287 118.395 116.595 119.65C115.31 120.572 114.47 122.077 114.47 123.776V146.564C114.47 147.357 115.113 148 115.906 148C116.698 148 117.341 147.357 117.341 146.564V129.604H131.052C131.845 129.604 132.487 128.961 132.487 128.168C132.487 127.375 131.845 126.733 131.052 126.733H117.341V123.776C117.341 122.561 118.329 121.573 119.544 121.573H133.156C134.37 121.573 135.359 122.561 135.359 123.776V146.564C135.359 147.357 136.001 148 136.794 148C137.587 148 138.23 147.357 138.23 146.564V123.775C138.23 122.006 137.318 120.446 135.941 119.537C136.318 119.168 146.714 106.738 147.08 106.302V106.302ZM134.136 117.264C133.37 118.177 132.246 118.701 131.054 118.701H121.364C119.146 118.701 117.342 116.897 117.342 114.679V93.0731C117.342 92.3563 117.925 91.7731 118.642 91.7731C119.358 91.7731 119.942 92.3563 119.942 93.0731V99.25C119.942 100.043 120.584 100.686 121.377 100.686C122.17 100.686 122.813 100.043 122.813 99.25V87.6152C122.813 86.8983 123.396 86.3151 124.113 86.3151C124.83 86.3151 125.413 86.8983 125.413 87.6152V99.25C125.413 100.043 126.055 100.686 126.848 100.686C127.641 100.686 128.284 100.043 128.284 99.25V87.6152V84.6924C128.284 83.9756 128.867 83.3924 129.584 83.3924C130.301 83.3924 130.884 83.9756 130.884 84.6924V99.25C130.884 100.043 131.527 100.686 132.319 100.686C133.112 100.686 133.755 100.043 133.755 99.25V87.6152C133.755 86.8983 134.338 86.3151 135.055 86.3151C135.772 86.3151 136.355 86.8983 136.355 87.6259L136.485 104.839C136.491 105.64 136.971 106.36 137.708 106.673C138.445 106.986 139.297 106.833 139.878 106.281L143.334 103.001C143.731 102.625 144.343 102.609 144.758 102.965C145.199 103.343 145.254 104.012 144.881 104.456L134.136 117.264Z" fill="#01512C"/>
</g>
<defs>
<filter id="filter0_d" x="4" y="6" width="191.182" height="191.182" filterUnits="userSpaceOnUse" color-interpolation-filters="sRGB">
<feFlood flood-opacity="0" result="BackgroundImageFix"/>
<feColorMatrix in="SourceAlpha" type="matrix" values="0 0 0 0 0 0 0 0 0 0 0 0 0 0 0 0 0 0 127 0"/>
<feOffset dx="1" dy="3"/>
<feGaussianBlur stdDeviation="7.5"/>
<feColorMatrix type="matrix" values="0 0 0 0 0 0 0 0 0 0.2625 0 0 0 0 0.0735 0 0 0 0.4 0"/>
<feBlend mode="normal" in2="BackgroundImageFix" result="effect1_dropShadow"/>
<feBlend mode="normal" in="SourceGraphic" in2="effect1_dropShadow" result="shape"/>
</filter>
<clipPath id="clip0">
<rect width="98" height="98" fill="white" transform="translate(50 50)"/>
</clipPath>
</defs>
</svg>
