<svg width="197" height="198" viewBox="0 0 197 198" fill="none" xmlns="http://www.w3.org/2000/svg">
<circle cx="98.5" cy="98.5" r="98.5" fill="#04B015"/>
<g filter="url(#filter0_d)">
<circle cx="98.5909" cy="98.5909" r="80.5909" fill="white"/>
</g>
<path d="M91.2277 91.2334L78.8712 78.8768C78.2672 78.2728 77.2911 78.2728 76.6872 78.8768C76.0834 79.4808 76.0834 80.457 76.6872 81.0608L89.0437 93.4174C89.3449 93.7186 89.7404 93.8699 90.1357 93.8699C90.5312 93.8699 90.9265 93.7186 91.2277 93.4174C91.8317 92.8134 91.8317 91.8373 91.2277 91.2334Z" fill="#01512C"/>
<path d="M91.2269 78.8768C90.6229 78.2728 89.6467 78.2728 89.0429 78.8768L76.6863 91.2334C76.0824 91.8374 76.0824 92.8136 76.6863 93.4174C76.9875 93.7186 77.383 93.8699 77.7783 93.8699C78.1736 93.8699 78.5691 93.7186 78.8703 93.4174L91.2269 81.0608C91.8309 80.457 91.8309 79.4808 91.2269 78.8768Z" fill="#01512C"/>
<path d="M119.029 128.303L112.851 122.125C112.247 121.521 111.271 121.521 110.667 122.125C110.063 122.729 110.063 123.705 110.667 124.309L116.845 130.487C117.146 130.788 117.542 130.94 117.937 130.94C118.332 130.94 118.728 130.788 119.029 130.487C119.633 129.883 119.633 128.907 119.029 128.303Z" fill="#01512C"/>
<path d="M119.029 122.125C118.425 121.521 117.449 121.521 116.845 122.125L110.667 128.303C110.063 128.907 110.063 129.883 110.667 130.487C110.968 130.788 111.363 130.94 111.759 130.94C112.154 130.94 112.55 130.788 112.851 130.487L119.029 124.309C119.633 123.705 119.633 122.729 119.029 122.125Z" fill="#01512C"/>
<path d="M85.5015 115.494C82.0941 115.494 79.3232 118.265 79.3232 121.672C79.3232 125.079 82.0942 127.85 85.5015 127.85C88.9087 127.85 91.6797 125.079 91.6797 121.672C91.6798 118.264 88.9089 115.494 85.5015 115.494ZM85.5015 124.761C83.7978 124.761 82.4123 123.376 82.4123 121.672C82.4123 119.968 83.7977 118.583 85.5015 118.583C87.2052 118.583 88.5906 119.968 88.5906 121.672C88.5906 123.375 87.2052 124.761 85.5015 124.761Z" fill="#01512C"/>
<path d="M110.215 103.137C106.808 103.137 104.037 105.908 104.037 109.315C104.037 112.723 106.808 115.494 110.215 115.494C113.623 115.494 116.394 112.723 116.394 109.315C116.394 105.908 113.623 103.137 110.215 103.137ZM110.215 112.405C108.512 112.405 107.126 111.019 107.126 109.315C107.126 107.612 108.512 106.226 110.215 106.226C111.919 106.226 113.305 107.612 113.305 109.315C113.304 111.019 111.919 112.405 110.215 112.405Z" fill="#01512C"/>
<path d="M108.67 81.5132C107.818 81.5132 107.126 82.2035 107.126 83.0577C107.126 94.9817 97.4257 104.682 85.5015 104.682C84.649 104.682 83.957 105.372 83.957 106.226C83.957 107.08 84.649 107.771 85.5015 107.771C99.1277 107.771 110.215 96.6839 110.215 83.0577C110.215 82.2037 109.523 81.5132 108.67 81.5132Z" fill="#01512C"/>
<path d="M115.94 88.1444L109.762 81.9662C109.157 81.3622 108.181 81.3622 107.578 81.9662L101.399 88.1444C100.795 88.7482 100.795 89.7246 101.399 90.3284C102.003 90.9324 102.979 90.9324 103.583 90.3284L108.67 85.2422L113.756 90.3284C114.057 90.6296 114.452 90.7809 114.848 90.7809C115.243 90.7809 115.639 90.6296 115.94 90.3284C116.544 89.7246 116.544 88.7482 115.94 88.1444Z" fill="#01512C"/>
<path d="M110.94 56.8002H106.988C105.839 56.8002 104.741 56.2411 104.05 55.3035C102.605 53.3403 100.289 52.1665 97.8581 52.1665C95.427 52.1665 93.1116 53.3403 91.6659 55.3035C90.9756 56.2411 89.8772 56.8002 88.7282 56.8002H84.7756C81.7684 56.8002 79.3232 59.2468 79.3232 62.2526V70.7013C79.3232 71.5555 80.0152 72.2458 80.8677 72.2458H114.848C115.701 72.2458 116.393 71.5555 116.393 70.7013V62.2526C116.393 59.2468 113.948 56.8002 110.94 56.8002ZM113.304 69.1568H82.4124V62.2526C82.4124 60.9504 83.4735 59.8894 84.7756 59.8894H88.7282C90.855 59.8894 92.8832 58.8608 94.1544 57.1354C95.0331 55.9399 96.3832 55.2557 97.8582 55.2557C99.3332 55.2557 100.683 55.9399 101.564 57.1354C102.833 58.8608 104.861 59.8894 106.988 59.8894H110.941C112.243 59.8894 113.304 60.9504 113.304 62.2526V69.1568H113.304Z" fill="#01512C"/>
<path d="M125.66 59.8896H114.848C113.996 59.8896 113.304 60.58 113.304 61.4342V69.1571H82.4125V61.4342C82.4125 60.58 81.7205 59.8896 80.868 59.8896H70.0559C65.7976 59.8896 62.333 63.3541 62.333 67.6125V137.118C62.333 141.376 65.7976 144.841 70.0559 144.841H125.66C129.919 144.841 133.383 141.376 133.383 137.118V67.6124C133.383 63.3541 129.919 59.8896 125.66 59.8896ZM130.294 137.118C130.294 139.673 128.215 141.752 125.66 141.752H70.0559C67.5012 141.752 65.4222 139.673 65.4222 137.118V67.6124C65.4222 65.0577 67.5012 62.9787 70.0559 62.9787H79.3233V70.7016C79.3233 71.5557 80.0153 72.2461 80.8678 72.2461H114.848C115.701 72.2461 116.393 71.5557 116.393 70.7016V62.9787H125.66C128.215 62.9787 130.294 65.0577 130.294 67.6124V137.118H130.294Z" fill="#01512C"/>
<path d="M122.571 66.0679H114.849C113.996 66.0679 113.304 66.7582 113.304 67.6124V69.1569H82.4128V67.6124C82.4128 66.7582 81.7209 66.0679 80.8683 66.0679H73.1454C70.5907 66.0679 68.5117 68.1469 68.5117 70.7016V134.029C68.5117 136.584 70.5907 138.663 73.1454 138.663H122.572C125.126 138.663 127.205 136.584 127.205 134.029V70.7016C127.205 68.1469 125.126 66.0679 122.571 66.0679ZM124.116 134.029C124.116 134.881 123.423 135.573 122.572 135.573H73.1454C72.2943 135.573 71.6009 134.881 71.6009 134.029V70.7016C71.6009 69.849 72.2943 69.1571 73.1454 69.1571H79.3236V70.7016C79.3236 71.5557 80.0156 72.2461 80.8681 72.2461H114.849C115.701 72.2461 116.393 71.5557 116.393 70.7016V69.1571H122.571C123.422 69.1571 124.116 69.849 124.116 70.7016V134.029H124.116Z" fill="#01512C"/>
<path d="M99.4106 58.3447H96.306C94.6069 58.3447 93.2246 59.7271 93.2246 61.4261V64.5307C93.2246 66.2298 94.6069 67.6121 96.306 67.6121H99.4106C101.11 67.6121 102.492 66.2298 102.492 64.5307V61.4261C102.492 59.7272 101.11 58.3447 99.4106 58.3447ZM96.3138 64.5307L96.306 61.4339L99.4028 61.4261L99.4045 64.5229L96.3138 64.5307Z" fill="#01512C"/>
<defs>
<filter id="filter0_d" x="4" y="6" width="191.182" height="191.182" filterUnits="userSpaceOnUse" color-interpolation-filters="sRGB">
<feFlood flood-opacity="0" result="BackgroundImageFix"/>
<feColorMatrix in="SourceAlpha" type="matrix" values="0 0 0 0 0 0 0 0 0 0 0 0 0 0 0 0 0 0 127 0"/>
<feOffset dx="1" dy="3"/>
<feGaussianBlur stdDeviation="7.5"/>
<feColorMatrix type="matrix" values="0 0 0 0 0 0 0 0 0 0.2625 0 0 0 0 0.0735 0 0 0 0.4 0"/>
<feBlend mode="normal" in2="BackgroundImageFix" result="effect1_dropShadow"/>
<feBlend mode="normal" in="SourceGraphic" in2="effect1_dropShadow" result="shape"/>
</filter>
</defs>
</svg>
