<svg width="112" height="111" viewBox="0 0 112 111" fill="none" xmlns="http://www.w3.org/2000/svg">
<g clip-path="url(#clip0)">
<path d="M24.0262 107.576L20.7329 102.979C20.0338 102.002 18.6681 101.773 17.6829 102.466C16.6978 103.159 16.466 104.512 17.1655 105.489L20.4588 110.086C20.8854 110.682 21.5595 111 22.2444 111C22.6824 111 23.1245 110.869 23.5088 110.599C24.4938 109.906 24.7257 108.553 24.0262 107.576Z" fill="#77BC1F"/>
<path d="M49.2636 108.386L45.6797 91.4571C43.9369 83.225 39.0982 76.1067 32.0553 71.4133L24.4032 66.3138C21.3348 64.2694 17.2106 64.7091 14.6459 67.3009V41.1778C14.6459 37.749 12.2872 34.8357 8.90968 34.0927C6.72984 33.6127 4.48154 34.1326 2.74008 35.5173C0.998834 36.9019 0.000244141 38.9652 0.000244141 41.1778V74.7925C0.000244141 79.1962 1.35999 83.4222 3.93226 87.0135L7.83321 92.4596C8.25977 93.0551 8.93396 93.3727 9.61886 93.3727C10.0568 93.3727 10.4989 93.2427 10.8832 92.9723C11.8683 92.2792 12.1001 90.926 11.4006 89.9495L7.49962 84.5034C5.45563 81.6497 4.37523 78.2918 4.37523 74.7922V41.1778C4.37523 40.2872 4.77729 39.4567 5.47816 38.8991C6.17881 38.3417 7.08378 38.1325 7.96184 38.3256C9.32136 38.6246 10.271 39.7975 10.271 41.1778V67.8472C10.271 71.6225 11.6705 75.2193 14.213 78.0177C14.322 78.1472 14.434 78.2753 14.5523 78.3995C16.005 79.9251 17.713 81.7228 19.3217 83.4173L21.5737 85.7927C21.5809 85.8003 21.5888 85.8068 21.5963 85.8142C23.5228 87.8449 24.9436 89.3445 24.9733 89.3757C25.8 90.2483 27.1846 90.2916 28.0653 89.4719C28.946 88.6522 28.9895 87.2803 28.1622 86.4075C28.1224 86.3655 25.5617 83.6631 22.6375 80.5826L17.6218 75.2922C17.6091 75.2787 17.5975 75.2646 17.5848 75.2512C16.4088 73.8572 16.4235 71.836 17.6561 70.4568C18.7466 69.2371 20.5981 69.0029 21.9624 69.9119L29.6141 75.0114C35.7058 79.0709 39.8907 85.2275 41.3979 92.3475L44.9821 109.277C45.1984 110.299 46.1077 111 47.1208 111C47.2695 111 47.4207 110.985 47.5721 110.953C48.7544 110.708 49.5117 109.558 49.2636 108.386Z" fill="#77BC1F"/>
<path d="M16.2069 96.6604L16.1929 96.6409C15.4907 95.6662 14.1249 95.4398 13.1416 96.1353C12.1583 96.8308 11.9299 98.1847 12.6315 99.1592L12.6455 99.1787C13.0725 99.7716 13.7451 100.088 14.4281 100.088C14.8677 100.088 15.3116 99.9568 15.6968 99.6843C16.6799 98.9888 16.9085 97.6349 16.2069 96.6604Z" fill="#77BC1F"/>
<path d="M109.26 35.5174C107.518 34.1327 105.269 33.6137 103.09 34.0928C99.7127 34.8356 97.3537 37.7491 97.3537 41.1779V67.301C94.7893 64.7092 90.6646 64.2695 87.5964 66.3139L79.9444 71.4132C72.9013 76.1064 68.0628 83.2249 66.32 91.4571L62.736 108.386C62.488 109.558 63.2453 110.707 64.4276 110.953C64.579 110.985 64.7304 111 64.8789 111C65.8921 111 66.8013 110.298 67.0176 109.277L70.6016 92.3472C72.109 85.2274 76.2937 79.0706 82.3854 75.0113L90.0375 69.9121C91.4014 69.0028 93.2528 69.237 94.3438 70.4567C95.5749 71.8342 95.5913 73.8521 94.4197 75.2461C94.4057 75.2613 94.3923 75.2769 94.3783 75.2921C94.3783 75.2921 83.8773 86.3658 83.8377 86.4074C83.0106 87.2803 83.0541 88.6521 83.9346 89.4719C84.8153 90.2916 86.1995 90.2484 87.0266 89.3756C87.0563 89.3444 95.9949 79.9252 97.4476 78.3996C97.5659 78.2754 97.6779 78.1473 97.7869 78.0179C100.329 75.2195 101.729 71.6226 101.729 67.8473V41.1777C101.729 39.7974 102.679 38.6245 104.038 38.3255C104.916 38.1326 105.821 38.3418 106.522 38.899C107.223 39.4564 107.625 40.2869 107.625 41.1777V74.7924C107.625 78.2919 106.544 81.6499 104.5 84.5035L87.9738 107.576C87.2744 108.553 87.5061 109.906 88.4911 110.599C88.8757 110.87 89.3175 111 89.7555 111C90.4402 111 91.1146 110.682 91.5411 110.087L108.068 87.0136C110.64 83.4224 112 79.1964 112 74.7926V41.1777C111.999 38.9651 111.001 36.9021 109.26 35.5174Z" fill="#77BC1F"/>
<path d="M83.7061 41.5512L79.8143 40.6298V39.9382C82.3437 38.1822 84.0023 35.2743 84.0023 31.9881V26.9738C84.0023 21.6235 79.6104 17.2709 74.2119 17.2709C71.7893 17.2709 69.5712 18.1493 67.8599 19.5993C65.9546 14.975 61.37 11.707 56.0273 11.707C50.678 11.707 46.0887 14.9835 44.1877 19.6166C42.4738 18.1563 40.2476 17.2705 37.8151 17.2705C32.4166 17.2705 28.0248 21.6231 28.0248 26.9734V27.3066V31.9876C28.0248 35.2738 29.6834 38.1817 32.2128 39.9378V40.6294L28.321 41.5507C23.6743 42.651 20.429 46.7261 20.429 51.4609V55.5098C20.429 56.7072 21.4085 57.6777 22.6164 57.6777H32.6684C32.6529 57.9407 32.6422 58.205 32.6422 58.4714V66.267C32.6422 67.4644 33.6217 68.435 34.8296 68.435H47.9787C49.1866 68.435 50.1662 67.4644 50.1662 66.267C50.1662 65.0696 49.1866 64.099 47.9787 64.099H45.7185V59.6189C45.7185 58.4216 44.739 57.451 43.5311 57.451C42.3231 57.451 41.3436 58.4216 41.3436 59.6189V64.0995H37.0174V58.4719C37.0174 54.2905 39.883 50.6898 43.9854 49.7155L49.9883 48.2898L54.0056 57.348C54.3548 58.1352 55.1405 58.6436 56.0078 58.6436H56.0081C56.8756 58.6436 57.6614 58.1354 58.0105 57.3482L62.0237 48.3035L68.0075 49.7203C72.1139 50.6926 74.9819 54.2938 74.9819 58.4782V64.0995H70.6557V59.6189C70.6557 58.4216 69.6762 57.451 68.4682 57.451C67.2603 57.451 66.2807 58.4216 66.2807 59.6189V64.0995H63.8017C62.5937 64.0995 61.6142 65.0701 61.6142 66.2674C61.6142 67.4648 62.5937 68.4354 63.8017 68.4354H77.1696C78.3776 68.4354 79.3571 67.4648 79.3571 66.2674V58.4782C79.3571 58.2096 79.3462 57.9433 79.3304 57.6782H89.4108C90.6188 57.6782 91.5983 56.7076 91.5983 55.5102V51.4613C91.5983 46.7265 88.353 42.6512 83.7061 41.5512ZM74.2119 21.6064C77.078 21.6064 79.4308 23.8244 79.6155 26.6193H76.5742C74.0175 26.6193 71.5014 26.0093 69.2398 24.8477C70.0717 22.9425 71.9875 21.6064 74.2119 21.6064ZM68.7966 31.6711C68.7992 31.5655 68.8047 31.4604 68.8047 31.3542V29.4234C71.2593 30.4302 73.8989 30.9553 76.5742 30.9553H79.6273V31.9879C79.6273 34.9471 77.1981 37.3549 74.2119 37.3549C71.2258 37.3549 68.7966 34.9471 68.7966 31.9876V31.6711ZM47.6252 24.3701C47.6252 19.7786 51.3942 16.043 56.0273 16.043C60.2061 16.043 63.6818 19.082 64.3236 23.0468L60.641 20.9024C59.7198 20.3661 58.5425 20.5675 57.8563 21.3794C56.0566 23.5079 53.4174 24.7287 50.6152 24.7287H47.6252V24.3701ZM37.8154 21.6064C40.0398 21.6064 41.9554 22.9427 42.7875 24.8475C40.5257 26.0091 38.0098 26.6191 35.4531 26.6191H32.4118C32.5964 23.8244 34.9495 21.6064 37.8154 21.6064ZM32.4 30.955H35.4531C38.1312 30.955 40.7737 30.4289 43.2307 29.4199V31.9874C43.2307 34.9467 40.8015 37.3544 37.8154 37.3544C34.8292 37.3544 32.4 34.9471 32.4 31.9876V30.955ZM42.966 45.4988C38.6624 46.5208 35.2801 49.4946 33.6703 53.342H24.8039V51.4611C24.8039 48.7412 26.6681 46.4 29.3375 45.7681L34.9086 44.4491C35.8932 44.216 36.588 43.3439 36.588 42.3405V41.6117C36.9905 41.6617 37.3995 41.6906 37.8154 41.6906C38.2281 41.6906 38.6344 41.6622 39.0338 41.6127V42.2313C39.0323 42.2636 39.0316 42.2959 39.0314 42.3282C39.0309 43.0395 39.3838 43.7363 40.0317 44.1516C40.2758 44.3084 40.5397 44.4103 40.8089 44.4612L44.072 45.236L42.966 45.4988ZM49.0678 42.1333C48.5058 41.8876 47.92 41.6912 47.3163 41.5479L43.4086 40.6198V39.9443C44.1138 39.4558 44.7515 38.8785 45.3044 38.2277C46.2814 39.7192 47.565 40.9947 49.0678 41.9661V42.1333ZM58.5685 45.3186L56.0087 51.0887L53.443 45.3039V43.7568C54.278 43.9275 55.1423 44.0174 56.0273 44.0174C56.8973 44.0174 57.7469 43.9301 58.5685 43.7651V45.3186ZM56.0273 39.6813C51.3942 39.6815 47.6252 35.9459 47.6252 31.3542V29.0644H50.6152C54.0842 29.0644 57.3825 27.7859 59.9103 25.5057L64.4214 28.1324V31.6713C64.2525 36.1163 60.5532 39.6813 56.0273 39.6813ZM62.9435 42.1402V41.9934C64.4586 41.0226 65.7536 39.744 66.7381 38.2459C67.2874 38.8893 67.9196 39.4604 68.6181 39.9443V40.6198L64.7101 41.5479C64.1011 41.6927 63.5103 41.8915 62.9435 42.1402ZM87.2231 53.342H78.3266C76.7153 49.4946 73.3306 46.5225 69.0243 45.5029L67.926 45.243L71.2065 44.4638C71.4795 44.4135 71.7477 44.3103 71.9951 44.1516C72.642 43.7369 72.9937 43.0401 72.9937 42.3288C72.9937 42.3119 72.9935 42.2948 72.9931 42.2779V41.6127C73.3927 41.6622 73.7987 41.6906 74.2115 41.6906C74.6273 41.6906 75.0364 41.6617 75.4389 41.6117V42.3405C75.4389 43.3439 76.1336 44.216 77.1182 44.4491L82.6893 45.7681C85.3587 46.4002 87.2231 48.7412 87.2231 51.4611V53.342Z" fill="#77BC1F"/>
<path d="M57.5461 64.7331C57.1372 64.3299 56.5751 64.1001 55.9997 64.1001C55.422 64.1001 54.8601 64.3299 54.4532 64.7331C54.0441 65.1385 53.8123 65.6957 53.8123 66.2681C53.8123 66.8382 54.0441 67.3954 54.4532 67.8008C54.8601 68.204 55.4223 68.436 55.9997 68.436C56.5751 68.436 57.1372 68.204 57.5461 67.8008C57.953 67.3954 58.1872 66.8382 58.1872 66.2681C58.1872 65.6957 57.9532 65.1385 57.5461 64.7331Z" fill="#77BC1F"/>
<path d="M55.998 0C54.7901 0 53.8105 0.970596 53.8105 2.16796V5.41188C53.8105 6.60924 54.7901 7.57984 55.998 7.57984C57.206 7.57984 58.1855 6.60924 58.1855 5.41188V2.16796C58.1855 0.970596 57.2062 0 55.998 0Z" fill="#77BC1F"/>
<path d="M47.9403 7.07168L45.6456 4.79966C44.791 3.95328 43.4061 3.95393 42.5521 4.80096C41.6981 5.64798 41.699 7.02073 42.5536 7.86689L44.8485 10.1389C45.2755 10.5619 45.8351 10.7733 46.3944 10.7733C46.9546 10.7733 47.5146 10.5612 47.9418 10.1376C48.7954 9.29059 48.795 7.91783 47.9403 7.07168Z" fill="#77BC1F"/>
<path d="M69.392 4.85521C68.5374 4.00906 67.152 4.00949 66.2984 4.85673L64.0215 7.11553C63.1677 7.96255 63.1684 9.3353 64.023 10.1815C64.4502 10.6044 65.0096 10.8158 65.5691 10.8158C66.1294 10.8158 66.6896 10.6038 67.1166 10.1799L69.3935 7.92114C70.2473 7.07412 70.2467 5.70137 69.392 4.85521Z" fill="#77BC1F"/>
</g>
<defs>
<clipPath id="clip0">
<rect width="112" height="111" fill="white"/>
</clipPath>
</defs>
</svg>
