<svg width="52" height="44" viewBox="0 0 52 44" fill="none" xmlns="http://www.w3.org/2000/svg">
<path fill-rule="evenodd" clip-rule="evenodd" d="M0 6.87202C7.78843 10.6898 11.6826 15.1757 11.6826 20.3297C8.36293 20.7115 5.61787 22.0636 3.44732 24.3861C1.27677 26.7086 0.191521 29.3969 0.191521 32.4512C0.191521 35.6963 1.24485 38.4324 3.35156 40.6594C5.45827 42.8865 8.10757 44 11.2996 44C14.8746 44 17.9707 42.5524 20.5882 39.6573C23.2056 36.7621 24.5143 33.2466 24.5143 29.1106C24.5143 16.7028 17.5559 6.99931 3.63884 0L0 6.87202ZM27.4857 6.87202C35.338 10.6898 39.2641 15.1757 39.2641 20.3297C35.8806 20.7115 33.1036 22.0636 30.933 24.3861C28.7625 26.7086 27.6772 29.3969 27.6772 32.4512C27.6772 35.6963 28.7465 38.4324 30.8852 40.6594C33.0238 42.8865 35.689 44 38.881 44C42.456 44 45.5363 42.5524 48.1218 39.6573C50.7073 36.7621 52 33.2466 52 29.1106C52 16.7028 45.0735 6.99931 31.2203 0L27.4857 6.87202Z" fill="white" fill-opacity="0.15"/>
</svg>
