<svg width="317" height="317" viewBox="0 0 317 317" fill="none" xmlns="http://www.w3.org/2000/svg">
<g opacity="0.5">
<path d="M232.656 78.9058C231.496 78.9058 230.625 78.0355 230.771 77.0202C230.771 75.8598 231.641 74.9895 232.656 75.1346C233.817 75.1346 234.687 76.0049 234.542 77.0202C234.687 78.0355 233.817 78.9058 232.656 78.9058Z" fill="#01512C"/>
<path d="M232.656 111.396C231.496 111.396 230.625 110.526 230.77 109.511C230.77 108.35 231.641 107.48 232.656 107.625C233.816 107.625 234.687 108.495 234.542 109.511C234.542 110.671 233.671 111.541 232.656 111.396Z" fill="#01512C"/>
<path d="M231.351 143.452C232.072 144.173 233.241 144.173 233.962 143.452C234.683 142.731 234.683 141.562 233.962 140.841C233.241 140.12 232.072 140.12 231.351 140.841C230.63 141.562 230.63 142.731 231.351 143.452Z" fill="#01512C"/>
<path d="M232.656 176.668C231.496 176.668 230.625 175.798 230.77 174.782C230.77 173.622 231.641 172.752 232.656 172.897C233.816 172.897 234.687 173.767 234.542 174.782C234.542 175.652 233.671 176.523 232.656 176.668Z" fill="#01512C"/>
<path d="M232.656 209.158C231.496 209.158 230.625 208.288 230.771 207.273C230.771 206.112 231.641 205.242 232.656 205.387C233.817 205.387 234.687 206.258 234.542 207.273C234.687 208.288 233.817 209.158 232.656 209.158Z" fill="#01512C"/>
<path d="M231.351 241.214C232.072 241.935 233.241 241.935 233.962 241.214C234.683 240.493 234.683 239.324 233.962 238.603C233.241 237.882 232.072 237.882 231.351 238.603C230.63 239.324 230.63 240.493 231.351 241.214Z" fill="#01512C"/>
<path d="M201.906 78.3257C202.627 79.0466 203.796 79.0466 204.517 78.3257C205.238 77.6047 205.238 76.4358 204.517 75.7148C203.796 74.9938 202.627 74.9938 201.906 75.7148C201.185 76.4358 201.185 77.6047 201.906 78.3257Z" fill="#01512C"/>
<path d="M203.066 111.396C201.906 111.396 201.036 110.526 201.181 109.511C201.181 108.35 202.051 107.48 203.066 107.625C204.227 107.625 205.097 108.496 204.952 109.511C205.097 110.526 204.227 111.396 203.066 111.396Z" fill="#01512C"/>
<path d="M203.212 144.032C202.051 144.032 201.181 143.162 201.326 142.147C201.326 140.986 202.196 140.116 203.212 140.261C204.372 140.261 205.242 141.131 205.097 142.147C204.952 143.162 204.082 144.032 203.212 144.032Z" fill="#01512C"/>
<path d="M203.211 176.523C202.051 176.523 201.181 175.653 201.326 174.637C201.326 173.477 202.196 172.607 203.212 172.752C204.372 172.752 205.242 173.622 205.097 174.637C204.952 175.653 204.082 176.523 203.211 176.523Z" fill="#01512C"/>
<path d="M201.761 208.433C202.482 209.154 203.651 209.154 204.372 208.433C205.093 207.712 205.093 206.543 204.372 205.823C203.651 205.102 202.482 205.102 201.761 205.823C201.04 206.543 201.04 207.712 201.761 208.433Z" fill="#01512C"/>
<path d="M203.066 241.649C201.906 241.649 201.036 240.779 201.181 239.764C201.181 238.603 202.051 237.733 203.066 237.878C204.227 237.878 205.097 238.748 204.952 239.764C205.097 240.779 204.227 241.649 203.066 241.649Z" fill="#01512C"/>
<path d="M173.477 78.9059C172.316 78.9059 171.446 78.0356 171.591 77.0203C171.591 75.8599 172.462 74.9896 173.477 75.1347C174.637 75.1347 175.508 76.005 175.362 77.0203C175.508 78.0356 174.637 78.9059 173.477 78.9059Z" fill="#01512C"/>
<path d="M173.622 111.542C172.462 111.542 171.591 110.671 171.736 109.656C171.736 108.496 172.607 107.625 173.622 107.77C174.782 107.77 175.653 108.641 175.508 109.656C175.508 110.526 174.637 111.397 173.622 111.542Z" fill="#01512C"/>
<path d="M172.316 143.307C173.037 144.028 174.206 144.028 174.927 143.307C175.648 142.586 175.648 141.417 174.927 140.696C174.206 139.975 173.037 139.975 172.316 140.696C171.595 141.417 171.595 142.586 172.316 143.307Z" fill="#01512C"/>
<path d="M173.622 176.523C172.461 176.523 171.591 175.653 171.736 174.637C171.736 173.477 172.607 172.607 173.622 172.752C174.782 172.752 175.652 173.622 175.507 174.637C175.507 175.798 174.637 176.668 173.622 176.523Z" fill="#01512C"/>
<path d="M173.477 209.159C172.316 209.159 171.446 208.288 171.591 207.273C171.591 206.113 172.462 205.242 173.477 205.387C174.637 205.387 175.508 206.258 175.362 207.273C175.508 208.288 174.637 209.159 173.477 209.159Z" fill="#01512C"/>
<path d="M173.622 241.794C172.461 241.794 171.591 240.924 171.736 239.909C171.736 238.748 172.607 237.878 173.622 238.023C174.782 238.023 175.653 238.893 175.507 239.909C175.507 240.779 174.637 241.649 173.622 241.794Z" fill="#01512C"/>
<path d="M144.032 78.7608C142.872 78.7608 142.001 77.8905 142.146 76.8752C142.146 75.7148 143.017 74.8445 144.032 74.9895C145.192 74.9895 146.063 75.8598 145.918 76.8752C145.918 78.0355 145.047 78.9058 144.032 78.7608Z" fill="#01512C"/>
<path d="M144.032 111.542C142.872 111.542 142.001 110.671 142.147 109.656C142.147 108.496 143.017 107.625 144.032 107.77C145.193 107.77 146.063 108.641 145.918 109.656C145.918 110.526 145.047 111.397 144.032 111.542Z" fill="#01512C"/>
<path d="M144.032 144.032C142.872 144.032 142.001 143.162 142.146 142.147C142.146 140.986 143.017 140.116 144.032 140.261C145.192 140.261 146.063 141.131 145.918 142.147C146.063 143.162 145.192 144.032 144.032 144.032Z" fill="#01512C"/>
<path d="M144.032 176.523C142.872 176.523 142.001 175.653 142.146 174.637C142.146 173.477 143.017 172.607 144.032 172.752C145.192 172.752 146.063 173.622 145.918 174.637C145.918 175.798 145.192 176.523 144.032 176.523Z" fill="#01512C"/>
<path d="M144.032 209.013C142.872 209.013 142.001 208.143 142.146 207.128C142.146 205.967 143.017 205.097 144.032 205.242C145.193 205.242 146.063 206.113 145.918 207.128C145.918 208.288 145.047 209.159 144.032 209.013Z" fill="#01512C"/>
<path d="M144.032 241.794C142.872 241.794 142.001 240.924 142.146 239.909C142.146 238.748 143.017 237.878 144.032 238.023C145.192 238.023 146.063 238.893 145.918 239.909C145.918 240.779 145.047 241.649 144.032 241.794Z" fill="#01512C"/>
<path d="M114.587 78.9059C113.427 78.9059 112.557 78.0356 112.702 77.0202C112.702 75.8599 113.572 74.9896 114.587 75.1346C115.748 75.1346 116.618 76.0049 116.473 77.0202C116.328 78.0356 115.458 78.9059 114.587 78.9059Z" fill="#01512C"/>
<path d="M114.587 111.396C113.427 111.396 112.557 110.526 112.702 109.511C112.702 108.35 113.572 107.48 114.587 107.625C115.748 107.625 116.618 108.496 116.473 109.511C116.473 110.671 115.603 111.542 114.587 111.396Z" fill="#01512C"/>
<path d="M114.442 144.032C113.282 144.032 112.412 143.162 112.557 142.147C112.557 140.986 113.427 140.116 114.442 140.261C115.603 140.261 116.473 141.131 116.328 142.147C116.473 143.162 115.603 144.032 114.442 144.032Z" fill="#01512C"/>
<path d="M114.442 176.523C113.282 176.523 112.412 175.653 112.557 174.637C112.557 173.477 113.427 172.607 114.442 172.752C115.603 172.752 116.473 173.622 116.328 174.637C116.473 175.653 115.603 176.523 114.442 176.523Z" fill="#01512C"/>
<path d="M114.588 209.159C113.427 209.159 112.557 208.288 112.702 207.273C112.702 206.113 113.572 205.242 114.588 205.387C115.748 205.387 116.618 206.258 116.473 207.273C116.328 208.288 115.458 209.159 114.588 209.159Z" fill="#01512C"/>
<path d="M113.137 241.069C113.858 241.79 115.027 241.79 115.748 241.069C116.469 240.348 116.469 239.179 115.748 238.458C115.027 237.737 113.858 237.737 113.137 238.458C112.416 239.179 112.416 240.348 113.137 241.069Z" fill="#01512C"/>
<path d="M84.1275 78.9059C82.9671 78.9059 82.0968 78.0356 82.2419 77.0202C82.2419 75.8599 83.1122 74.9896 84.1275 75.1346C85.2879 75.1346 86.1582 76.0049 86.0131 77.0202C86.1582 78.0356 85.2879 78.9059 84.1275 78.9059Z" fill="#01512C"/>
<path d="M82.8221 110.961C83.5431 111.682 84.712 111.682 85.433 110.961C86.1539 110.24 86.1539 109.072 85.433 108.351C84.712 107.63 83.5431 107.63 82.8221 108.351C82.1012 109.072 82.1012 110.24 82.8221 110.961Z" fill="#01512C"/>
<path d="M84.1276 143.887C82.9672 143.887 82.0969 143.017 82.2419 142.002C82.2419 140.841 83.1122 139.971 84.1276 140.116C85.2879 140.116 86.1582 140.986 86.0132 142.002C86.0132 143.162 85.1429 144.032 84.1276 143.887Z" fill="#01512C"/>
<path d="M84.1275 176.668C82.9671 176.668 82.0968 175.798 82.2418 174.782C82.2418 173.622 83.1121 172.752 84.1275 172.897C85.2878 172.897 86.1581 173.767 86.0131 174.782C86.0131 175.653 85.1428 176.523 84.1275 176.668Z" fill="#01512C"/>
<path d="M84.1276 209.159C82.9672 209.159 82.0969 208.288 82.2419 207.273C82.2419 206.113 83.1122 205.242 84.1275 205.387C85.2879 205.387 86.1582 206.258 86.0132 207.273C86.1582 208.288 85.2879 209.159 84.1276 209.159Z" fill="#01512C"/>
<path d="M84.1275 241.649C82.9671 241.649 82.0969 240.779 82.2419 239.764C82.2419 238.603 83.1122 237.733 84.1275 237.878C85.2879 237.878 86.1582 238.748 86.0131 239.764C86.0131 240.924 85.1428 241.794 84.1275 241.649Z" fill="#01512C"/>
</g>
</svg>
