<svg width="317" height="318" viewBox="0 0 317 318" fill="none" xmlns="http://www.w3.org/2000/svg">
<g opacity="0.15">
<path d="M232.656 79.514C231.496 79.514 230.625 78.6437 230.771 77.6283C230.771 76.468 231.641 75.5977 232.656 75.7427C233.817 75.7427 234.687 76.613 234.542 77.6283C234.687 78.6437 233.817 79.514 232.656 79.514Z" fill="#01512C"/>
<path d="M232.656 112.005C231.496 112.005 230.625 111.134 230.77 110.119C230.77 108.959 231.641 108.088 232.656 108.233C233.816 108.233 234.687 109.104 234.542 110.119C234.542 111.279 233.671 112.15 232.656 112.005Z" fill="#01512C"/>
<path d="M231.351 144.06C232.072 144.781 233.241 144.781 233.962 144.06C234.683 143.339 234.682 142.17 233.962 141.449C233.241 140.728 232.072 140.728 231.351 141.449C230.63 142.17 230.63 143.339 231.351 144.06Z" fill="#01512C"/>
<path d="M232.656 177.276C231.496 177.276 230.625 176.406 230.77 175.39C230.77 174.23 231.641 173.36 232.656 173.505C233.816 173.505 234.687 174.375 234.542 175.39C234.542 176.261 233.671 177.131 232.656 177.276Z" fill="#01512C"/>
<path d="M232.656 209.767C231.496 209.767 230.625 208.896 230.771 207.881C230.771 206.721 231.641 205.85 232.656 205.995C233.817 205.995 234.687 206.866 234.542 207.881C234.687 208.896 233.817 209.767 232.656 209.767Z" fill="#01512C"/>
<path d="M231.351 241.822C232.072 242.543 233.241 242.543 233.962 241.822C234.682 241.101 234.682 239.932 233.962 239.211C233.241 238.49 232.072 238.49 231.351 239.211C230.63 239.932 230.63 241.101 231.351 241.822Z" fill="#01512C"/>
<path d="M201.906 78.9337C202.627 79.6547 203.796 79.6547 204.517 78.9338C205.238 78.2128 205.238 77.0439 204.517 76.3229C203.796 75.6019 202.627 75.6019 201.906 76.3229C201.185 77.0439 201.185 78.2128 201.906 78.9337Z" fill="#01512C"/>
<path d="M203.066 112.005C201.906 112.005 201.036 111.134 201.181 110.119C201.181 108.959 202.051 108.088 203.066 108.233C204.227 108.233 205.097 109.104 204.952 110.119C205.097 111.134 204.227 112.005 203.066 112.005Z" fill="#01512C"/>
<path d="M203.212 144.64C202.051 144.64 201.181 143.77 201.326 142.755C201.326 141.594 202.196 140.724 203.212 140.869C204.372 140.869 205.242 141.739 205.097 142.755C204.952 143.77 204.082 144.64 203.212 144.64Z" fill="#01512C"/>
<path d="M203.212 177.131C202.051 177.131 201.181 176.261 201.326 175.245C201.326 174.085 202.196 173.215 203.212 173.36C204.372 173.36 205.242 174.23 205.097 175.245C204.952 176.261 204.082 177.131 203.212 177.131Z" fill="#01512C"/>
<path d="M201.761 209.041C202.482 209.762 203.651 209.762 204.372 209.041C205.093 208.32 205.093 207.152 204.372 206.431C203.651 205.71 202.482 205.71 201.761 206.431C201.04 207.152 201.04 208.32 201.761 209.041Z" fill="#01512C"/>
<path d="M203.066 242.257C201.906 242.257 201.036 241.387 201.181 240.372C201.181 239.211 202.051 238.341 203.066 238.486C204.227 238.486 205.097 239.356 204.952 240.372C205.097 241.387 204.227 242.257 203.066 242.257Z" fill="#01512C"/>
<path d="M173.477 79.5141C172.316 79.5141 171.446 78.6438 171.591 77.6285C171.591 76.4681 172.462 75.5978 173.477 75.7428C174.637 75.7428 175.508 76.6131 175.362 77.6285C175.508 78.6438 174.637 79.5141 173.477 79.5141Z" fill="#01512C"/>
<path d="M173.622 112.15C172.462 112.15 171.591 111.28 171.736 110.264C171.736 109.104 172.607 108.234 173.622 108.379C174.782 108.379 175.653 109.249 175.508 110.264C175.508 111.134 174.637 112.005 173.622 112.15Z" fill="#01512C"/>
<path d="M172.316 143.915C173.037 144.636 174.206 144.636 174.927 143.915C175.648 143.194 175.648 142.025 174.927 141.304C174.206 140.583 173.037 140.583 172.316 141.304C171.595 142.025 171.595 143.194 172.316 143.915Z" fill="#01512C"/>
<path d="M173.622 177.131C172.461 177.131 171.591 176.261 171.736 175.245C171.736 174.085 172.606 173.215 173.622 173.36C174.782 173.36 175.652 174.23 175.507 175.245C175.507 176.406 174.637 177.276 173.622 177.131Z" fill="#01512C"/>
<path d="M173.477 209.767C172.316 209.767 171.446 208.896 171.591 207.881C171.591 206.721 172.462 205.85 173.477 205.996C174.637 205.996 175.508 206.866 175.362 207.881C175.508 208.896 174.637 209.767 173.477 209.767Z" fill="#01512C"/>
<path d="M173.622 242.402C172.461 242.402 171.591 241.532 171.736 240.517C171.736 239.356 172.607 238.486 173.622 238.631C174.782 238.631 175.653 239.501 175.507 240.517C175.507 241.387 174.637 242.257 173.622 242.402Z" fill="#01512C"/>
<path d="M144.032 79.3689C142.872 79.3689 142.001 78.4987 142.146 77.4833C142.146 76.3229 143.017 75.4527 144.032 75.5977C145.192 75.5977 146.063 76.468 145.918 77.4833C145.918 78.6437 145.047 79.514 144.032 79.3689Z" fill="#01512C"/>
<path d="M144.032 112.15C142.872 112.15 142.001 111.279 142.147 110.264C142.147 109.104 143.017 108.233 144.032 108.378C145.193 108.378 146.063 109.249 145.918 110.264C145.918 111.134 145.047 112.005 144.032 112.15Z" fill="#01512C"/>
<path d="M144.032 144.64C142.872 144.64 142.001 143.77 142.146 142.755C142.146 141.594 143.017 140.724 144.032 140.869C145.192 140.869 146.063 141.739 145.918 142.755C146.063 143.77 145.192 144.64 144.032 144.64Z" fill="#01512C"/>
<path d="M144.032 177.131C142.872 177.131 142.001 176.261 142.146 175.245C142.146 174.085 143.017 173.215 144.032 173.36C145.192 173.36 146.063 174.23 145.918 175.245C145.918 176.406 145.192 177.131 144.032 177.131Z" fill="#01512C"/>
<path d="M144.032 209.622C142.872 209.622 142.001 208.751 142.147 207.736C142.147 206.576 143.017 205.705 144.032 205.85C145.193 205.85 146.063 206.721 145.918 207.736C145.918 208.896 145.047 209.767 144.032 209.622Z" fill="#01512C"/>
<path d="M144.032 242.402C142.872 242.402 142.001 241.532 142.146 240.517C142.146 239.356 143.017 238.486 144.032 238.631C145.192 238.631 146.063 239.501 145.918 240.517C145.918 241.387 145.047 242.257 144.032 242.402Z" fill="#01512C"/>
<path d="M114.587 79.514C113.427 79.514 112.557 78.6437 112.702 77.6283C112.702 76.468 113.572 75.5977 114.587 75.7427C115.748 75.7427 116.618 76.613 116.473 77.6283C116.328 78.6437 115.458 79.514 114.587 79.514Z" fill="#01512C"/>
<path d="M114.587 112.005C113.427 112.005 112.557 111.134 112.702 110.119C112.702 108.959 113.572 108.088 114.587 108.233C115.748 108.233 116.618 109.104 116.473 110.119C116.473 111.279 115.603 112.15 114.587 112.005Z" fill="#01512C"/>
<path d="M114.442 144.64C113.282 144.64 112.412 143.77 112.557 142.755C112.557 141.594 113.427 140.724 114.442 140.869C115.603 140.869 116.473 141.739 116.328 142.755C116.473 143.77 115.603 144.64 114.442 144.64Z" fill="#01512C"/>
<path d="M114.442 177.131C113.282 177.131 112.412 176.261 112.557 175.245C112.557 174.085 113.427 173.215 114.442 173.36C115.603 173.36 116.473 174.23 116.328 175.245C116.473 176.261 115.603 177.131 114.442 177.131Z" fill="#01512C"/>
<path d="M114.588 209.767C113.427 209.767 112.557 208.896 112.702 207.881C112.702 206.721 113.572 205.85 114.588 205.995C115.748 205.995 116.618 206.866 116.473 207.881C116.328 208.896 115.458 209.767 114.588 209.767Z" fill="#01512C"/>
<path d="M113.137 241.677C113.858 242.398 115.027 242.398 115.748 241.677C116.469 240.956 116.469 239.787 115.748 239.066C115.027 238.345 113.858 238.345 113.137 239.066C112.416 239.787 112.416 240.956 113.137 241.677Z" fill="#01512C"/>
<path d="M84.1275 79.514C82.9671 79.514 82.0968 78.6437 82.2419 77.6283C82.2419 76.468 83.1122 75.5977 84.1275 75.7427C85.2879 75.7427 86.1582 76.613 86.0131 77.6283C86.1582 78.6437 85.2879 79.514 84.1275 79.514Z" fill="#01512C"/>
<path d="M82.8221 111.569C83.5431 112.29 84.712 112.29 85.433 111.569C86.1539 110.849 86.1539 109.68 85.433 108.959C84.712 108.238 83.5431 108.238 82.8221 108.959C82.1011 109.68 82.1011 110.849 82.8221 111.569Z" fill="#01512C"/>
<path d="M84.1275 144.495C82.9672 144.495 82.0969 143.625 82.2419 142.61C82.2419 141.449 83.1122 140.579 84.1275 140.724C85.2879 140.724 86.1582 141.594 86.0132 142.61C86.0132 143.77 85.1429 144.64 84.1275 144.495Z" fill="#01512C"/>
<path d="M84.1275 177.276C82.9671 177.276 82.0968 176.406 82.2418 175.39C82.2418 174.23 83.1121 173.36 84.1275 173.505C85.2878 173.505 86.1581 174.375 86.0131 175.39C86.0131 176.261 85.1428 177.131 84.1275 177.276Z" fill="#01512C"/>
<path d="M84.1275 209.767C82.9672 209.767 82.0969 208.896 82.2419 207.881C82.2419 206.721 83.1122 205.85 84.1275 205.995C85.2879 205.995 86.1582 206.866 86.0131 207.881C86.1582 208.896 85.2879 209.767 84.1275 209.767Z" fill="#01512C"/>
<path d="M84.1275 242.257C82.9671 242.257 82.0968 241.387 82.2419 240.372C82.2419 239.211 83.1122 238.341 84.1275 238.486C85.2879 238.486 86.1582 239.356 86.0131 240.372C86.0131 241.532 85.1428 242.402 84.1275 242.257Z" fill="#01512C"/>
</g>
</svg>
