<svg width="210" height="89" viewBox="0 0 210 89" fill="none" xmlns="http://www.w3.org/2000/svg">
<g clip-path="url(#clip0)">
<path d="M114.015 4.00409C115.128 4.00409 116.03 3.10774 116.03 2.00204C116.03 0.896346 115.128 0 114.015 0C112.902 0 112 0.896346 112 2.00204C112 3.10774 112.902 4.00409 114.015 4.00409Z" fill="#01512C"/>
<path d="M132.699 4.00409C133.812 4.00409 134.714 3.10774 134.714 2.00204C134.714 0.896346 133.812 0 132.699 0C131.586 0 130.684 0.896346 130.684 2.00204C130.684 3.10774 131.586 4.00409 132.699 4.00409Z" fill="#01512C"/>
<path d="M153.581 2.00204C153.581 3.09407 152.665 4.00409 151.566 4.00409C150.467 4.00409 149.551 3.09407 149.551 2.00204C149.551 0.91002 150.467 0 151.566 0C152.665 0 153.581 0.91002 153.581 2.00204Z" fill="#01512C"/>
<path d="M172.265 2.00204C172.265 3.09407 171.349 4.00409 170.25 4.00409C169.151 4.00409 168.235 3.09407 168.235 2.00204C168.235 0.91002 169.335 0 170.434 0C171.533 0 172.265 0.91002 172.265 2.00204Z" fill="#01512C"/>
<path d="M191.133 2.00204C191.133 3.09407 190.217 4.00409 189.118 4.00409C188.019 4.00409 187.103 3.09407 187.103 2.00204C187.103 0.91002 188.202 0 189.118 0C190.217 0 191.133 0.91002 191.133 2.00204Z" fill="#01512C"/>
<path d="M210 2.00204C210 3.09407 209.084 4.00409 207.985 4.00409C206.886 4.00409 205.97 3.09407 205.97 2.00204C205.97 0.91002 206.886 0 207.985 0C209.084 0 210 0.91002 210 2.00204Z" fill="#01512C"/>
<path d="M115.847 18.9284C115.847 20.0205 114.931 20.9305 113.832 20.9305C112.916 20.9305 112 20.0205 112 18.9284C112 17.8364 112.916 16.9264 114.015 16.9264C114.931 17.1084 115.847 17.8364 115.847 18.9284Z" fill="#01512C"/>
<path d="M134.714 18.9284C134.714 20.0205 133.798 20.9305 132.699 20.9305C131.6 20.9305 130.684 20.0205 130.684 18.9284C130.684 17.8364 131.6 16.9264 132.699 16.9264C133.798 17.1084 134.714 17.8364 134.714 18.9284Z" fill="#01512C"/>
<path d="M153.581 18.9284C153.581 20.0205 152.665 20.9305 151.566 20.9305C150.467 20.9305 149.551 20.0205 149.551 18.9284C149.551 17.8364 150.467 16.9264 151.566 16.9264C152.665 17.1084 153.581 17.8364 153.581 18.9284Z" fill="#01512C"/>
<path d="M172.265 18.9284C172.265 20.0205 171.349 20.9305 170.25 20.9305C169.151 20.9305 168.235 20.0205 168.235 18.9284C168.235 17.8364 169.151 16.9264 170.25 16.9264C171.533 17.1084 172.265 17.8364 172.265 18.9284Z" fill="#01512C"/>
<path d="M191.133 18.9284C191.133 20.0205 190.217 20.9305 189.118 20.9305C188.019 20.9305 187.103 20.0205 187.103 18.9284C187.103 17.8364 188.019 16.9264 189.118 16.9264C190.217 17.1084 191.133 17.8364 191.133 18.9284Z" fill="#01512C"/>
<path d="M210 18.9284C210 20.0205 209.084 20.9305 207.985 20.9305C206.886 20.9305 205.97 20.0205 205.97 18.9284C205.97 17.8364 206.886 16.9264 207.985 16.9264C209.084 16.9264 210 17.8364 210 18.9284Z" fill="#01512C"/>
<path d="M115.847 36.0368C115.847 37.1288 114.931 38.0389 113.832 38.0389C112.733 38.0389 111.817 37.1288 111.817 36.0368C111.817 34.9448 112.733 34.0348 113.832 34.0348C114.931 34.0348 115.847 34.9448 115.847 36.0368Z" fill="#01512C"/>
<path d="M134.714 36.0368C134.714 37.1288 133.798 38.0389 132.699 38.0389C131.6 38.0389 130.684 37.1288 130.684 36.0368C130.684 34.9448 131.6 34.0348 132.699 34.0348C133.798 34.0348 134.714 34.9448 134.714 36.0368Z" fill="#01512C"/>
<path d="M153.581 36.0368C153.581 37.1288 152.665 38.0389 151.566 38.0389C150.467 38.0389 149.551 37.1288 149.551 36.0368C149.551 34.9448 150.467 34.0348 151.566 34.0348C152.665 34.0348 153.581 34.9448 153.581 36.0368Z" fill="#01512C"/>
<path d="M172.266 36.0368C172.266 37.1288 171.35 38.0389 170.251 38.0389C169.152 38.0389 168.236 37.1288 168.236 36.0368C168.236 34.9448 169.152 34.0348 170.251 34.0348C171.533 34.0348 172.266 34.9448 172.266 36.0368Z" fill="#01512C"/>
<path d="M191.133 36.0368C191.133 37.1288 190.217 38.0389 189.118 38.0389C188.019 38.0389 187.103 37.1288 187.103 36.0368C187.103 34.9448 188.019 34.0348 189.118 34.0348C190.217 34.0348 191.133 34.9448 191.133 36.0368Z" fill="#01512C"/>
<path d="M210 36.0368C210 37.1288 209.084 38.0389 207.985 38.0389C206.886 38.0389 205.97 37.1288 205.97 36.0368C205.97 34.9448 206.886 34.0348 207.985 34.0348C209.084 34.0348 210 34.9448 210 36.0368Z" fill="#01512C"/>
<path d="M115.847 52.9632C115.847 54.0552 114.931 54.9652 113.832 54.9652C112.733 54.9652 111.817 54.0552 111.817 52.9632C111.817 51.8712 112.733 50.9612 113.832 50.9612C114.931 51.1432 115.847 52.0532 115.847 52.9632Z" fill="#01512C"/>
<path d="M134.714 52.9632C134.714 54.0552 133.798 54.9652 132.699 54.9652C131.6 54.9652 130.684 54.0552 130.684 52.9632C130.684 51.8712 131.6 50.9612 132.699 50.9612C133.798 51.1432 134.714 52.0532 134.714 52.9632Z" fill="#01512C"/>
<path d="M153.581 52.9632C153.581 54.0552 152.665 54.9652 151.566 54.9652C150.467 54.9652 149.551 54.0552 149.551 52.9632C149.551 51.8712 150.467 50.9612 151.566 50.9612C152.665 51.1432 153.581 52.0532 153.581 52.9632Z" fill="#01512C"/>
<path d="M172.266 52.9632C172.266 54.0552 171.35 54.9652 170.251 54.9652C169.152 54.9652 168.236 54.0552 168.236 52.9632C168.236 51.8712 169.152 50.9612 170.251 50.9612C171.533 51.1432 172.266 52.0532 172.266 52.9632Z" fill="#01512C"/>
<path d="M191.133 52.9632C191.133 54.0552 190.217 54.9652 189.118 54.9652C188.019 54.9652 187.103 54.0552 187.103 52.9632C187.103 51.8712 188.019 50.9612 189.118 50.9612C190.217 51.1432 191.133 52.0532 191.133 52.9632Z" fill="#01512C"/>
<path d="M210 52.9632C210 54.0552 209.084 54.9652 207.985 54.9652C206.886 54.9652 205.97 54.0552 205.97 52.9632C205.97 51.8712 206.886 50.9612 207.985 50.9612C209.084 50.9612 210 52.0532 210 52.9632Z" fill="#01512C"/>
<path d="M114.015 72.0736C115.128 72.0736 116.03 71.1773 116.03 70.0716C116.03 68.9659 115.128 68.0695 114.015 68.0695C112.902 68.0695 112 68.9659 112 70.0716C112 71.1773 112.902 72.0736 114.015 72.0736Z" fill="#01512C"/>
<path d="M132.699 72.0736C133.812 72.0736 134.714 71.1773 134.714 70.0716C134.714 68.9659 133.812 68.0695 132.699 68.0695C131.586 68.0695 130.684 68.9659 130.684 70.0716C130.684 71.1773 131.586 72.0736 132.699 72.0736Z" fill="#01512C"/>
<path d="M153.581 70.0716C153.581 71.1636 152.665 72.0736 151.566 72.0736C150.467 72.0736 149.551 71.1636 149.551 70.0716C149.551 68.9795 150.467 68.0695 151.566 68.0695C152.665 68.0695 153.581 68.9795 153.581 70.0716Z" fill="#01512C"/>
<path d="M172.265 70.0716C172.265 71.1636 171.349 72.0736 170.25 72.0736C169.151 72.0736 168.235 71.1636 168.235 70.0716C168.235 68.9795 169.151 68.0695 170.25 68.0695C171.533 68.0695 172.265 68.9795 172.265 70.0716Z" fill="#01512C"/>
<path d="M191.133 70.0716C191.133 71.1636 190.217 72.0736 189.118 72.0736C188.019 72.0736 187.103 71.1636 187.103 70.0716C187.103 68.9795 188.019 68.0695 189.118 68.0695C190.217 68.0695 191.133 68.9795 191.133 70.0716Z" fill="#01512C"/>
<path d="M210 70.0716C210 71.1636 209.084 72.0736 207.985 72.0736C206.886 72.0736 205.97 71.1636 205.97 70.0716C205.97 68.9795 206.886 68.0695 207.985 68.0695C209.084 68.0695 210 68.9795 210 70.0716Z" fill="#01512C"/>
<path d="M114.015 89.182C115.128 89.182 116.03 88.2856 116.03 87.1799C116.03 86.0742 115.128 85.1779 114.015 85.1779C112.902 85.1779 112 86.0742 112 87.1799C112 88.2856 112.902 89.182 114.015 89.182Z" fill="#01512C"/>
<path d="M132.699 89.182C133.812 89.182 134.714 88.2856 134.714 87.1799C134.714 86.0742 133.812 85.1779 132.699 85.1779C131.586 85.1779 130.684 86.0742 130.684 87.1799C130.684 88.2856 131.586 89.182 132.699 89.182Z" fill="#01512C"/>
<path d="M153.581 87.1799C153.581 88.272 152.665 89.182 151.566 89.182C150.467 89.182 149.551 88.272 149.551 87.1799C149.551 86.0879 150.467 85.1779 151.566 85.1779C152.665 85.1779 153.581 86.0879 153.581 87.1799Z" fill="#01512C"/>
<path d="M172.265 87.1799C172.265 88.272 171.349 89.182 170.25 89.182C169.151 89.182 168.235 88.272 168.235 87.1799C168.235 86.0879 169.151 85.1779 170.25 85.1779C171.533 85.1779 172.265 86.0879 172.265 87.1799Z" fill="#01512C"/>
<path d="M191.133 87.1799C191.133 88.272 190.217 89.182 189.118 89.182C188.019 89.182 187.103 88.272 187.103 87.1799C187.103 86.0879 188.019 85.1779 189.118 85.1779C190.217 85.1779 191.133 86.0879 191.133 87.1799Z" fill="#01512C"/>
<path d="M210 87.1799C210 88.272 209.084 89.182 207.985 89.182C206.886 89.182 205.97 88.272 205.97 87.1799C205.97 86.0879 206.886 85.1779 207.985 85.1779C209.084 85.1779 210 86.0879 210 87.1799Z" fill="#01512C"/>
</g>
<g clip-path="url(#clip1)">
<path d="M2.01495 4.00409C3.12778 4.00409 4.02991 3.10774 4.02991 2.00204C4.02991 0.896346 3.12778 0 2.01495 0C0.902125 0 0 0.896346 0 2.00204C0 3.10774 0.902125 4.00409 2.01495 4.00409Z" fill="#01512C"/>
<path d="M20.699 4.00409C21.8118 4.00409 22.7139 3.10774 22.7139 2.00204C22.7139 0.896346 21.8118 0 20.699 0C19.5861 0 18.684 0.896346 18.684 2.00204C18.684 3.10774 19.5861 4.00409 20.699 4.00409Z" fill="#01512C"/>
<path d="M41.5813 2.00204C41.5813 3.09407 40.6655 4.00409 39.5664 4.00409C38.4673 4.00409 37.5514 3.09407 37.5514 2.00204C37.5514 0.91002 38.4673 0 39.5664 0C40.6655 0 41.5813 0.91002 41.5813 2.00204Z" fill="#01512C"/>
<path d="M60.2654 2.00204C60.2654 3.09407 59.3495 4.00409 58.2504 4.00409C57.1513 4.00409 56.2354 3.09407 56.2354 2.00204C56.2354 0.91002 57.3345 0 58.4336 0C59.5326 0 60.2654 0.91002 60.2654 2.00204Z" fill="#01512C"/>
<path d="M79.1327 2.00204C79.1327 3.09407 78.2168 4.00409 77.1178 4.00409C76.0187 4.00409 75.1028 3.09407 75.1028 2.00204C75.1028 0.91002 76.2019 0 77.1178 0C78.2168 0 79.1327 0.91002 79.1327 2.00204Z" fill="#01512C"/>
<path d="M98.0001 2.00204C98.0001 3.09407 97.0842 4.00409 95.9851 4.00409C94.886 4.00409 93.9701 3.09407 93.9701 2.00204C93.9701 0.91002 94.886 0 95.9851 0C97.0842 0 98.0001 0.91002 98.0001 2.00204Z" fill="#01512C"/>
<path d="M3.84673 18.9284C3.84673 20.0205 2.93084 20.9305 1.83178 20.9305C0.915888 20.9305 0 20.0205 0 18.9284C0 17.8364 0.915888 16.9264 2.01495 16.9264C2.93084 17.1084 3.84673 17.8364 3.84673 18.9284Z" fill="#01512C"/>
<path d="M22.7139 18.9284C22.7139 20.0205 21.798 20.9305 20.699 20.9305C19.5999 20.9305 18.684 20.0205 18.684 18.9284C18.684 17.8364 19.5999 16.9264 20.699 16.9264C21.798 17.1084 22.7139 17.8364 22.7139 18.9284Z" fill="#01512C"/>
<path d="M41.5813 18.9284C41.5813 20.0205 40.6655 20.9305 39.5664 20.9305C38.4673 20.9305 37.5514 20.0205 37.5514 18.9284C37.5514 17.8364 38.4673 16.9264 39.5664 16.9264C40.6655 17.1084 41.5813 17.8364 41.5813 18.9284Z" fill="#01512C"/>
<path d="M60.2654 18.9284C60.2654 20.0205 59.3495 20.9305 58.2504 20.9305C57.1513 20.9305 56.2354 20.0205 56.2354 18.9284C56.2354 17.8364 57.1513 16.9264 58.2504 16.9264C59.5326 17.1084 60.2654 17.8364 60.2654 18.9284Z" fill="#01512C"/>
<path d="M79.1327 18.9284C79.1327 20.0205 78.2168 20.9305 77.1178 20.9305C76.0187 20.9305 75.1028 20.0205 75.1028 18.9284C75.1028 17.8364 76.0187 16.9264 77.1178 16.9264C78.2168 17.1084 79.1327 17.8364 79.1327 18.9284Z" fill="#01512C"/>
<path d="M98.0001 18.9284C98.0001 20.0205 97.0842 20.9305 95.9851 20.9305C94.886 20.9305 93.9701 20.0205 93.9701 18.9284C93.9701 17.8364 94.886 16.9264 95.9851 16.9264C97.0842 16.9264 98.0001 17.8364 98.0001 18.9284Z" fill="#01512C"/>
<path d="M3.84679 36.0368C3.84679 37.1288 2.9309 38.0389 1.83183 38.0389C0.732767 38.0389 -0.183121 37.1288 -0.183121 36.0368C-0.183121 34.9448 0.732767 34.0348 1.83183 34.0348C2.9309 34.0348 3.84679 34.9448 3.84679 36.0368Z" fill="#01512C"/>
<path d="M22.7141 36.0368C22.7141 37.1288 21.7983 38.0389 20.6992 38.0389C19.6001 38.0389 18.6842 37.1288 18.6842 36.0368C18.6842 34.9448 19.6001 34.0348 20.6992 34.0348C21.7983 34.0348 22.7141 34.9448 22.7141 36.0368Z" fill="#01512C"/>
<path d="M41.5813 36.0368C41.5813 37.1288 40.6655 38.0389 39.5664 38.0389C38.4673 38.0389 37.5514 37.1288 37.5514 36.0368C37.5514 34.9448 38.4673 34.0348 39.5664 34.0348C40.6655 34.0348 41.5813 34.9448 41.5813 36.0368Z" fill="#01512C"/>
<path d="M60.2656 36.0368C60.2656 37.1288 59.3497 38.0389 58.2506 38.0389C57.1516 38.0389 56.2357 37.1288 56.2357 36.0368C56.2357 34.9448 57.1516 34.0348 58.2506 34.0348C59.5329 34.0348 60.2656 34.9448 60.2656 36.0368Z" fill="#01512C"/>
<path d="M79.1328 36.0368C79.1328 37.1288 78.2169 38.0389 77.1178 38.0389C76.0187 38.0389 75.1029 37.1288 75.1029 36.0368C75.1029 34.9448 76.0187 34.0348 77.1178 34.0348C78.2169 34.0348 79.1328 34.9448 79.1328 36.0368Z" fill="#01512C"/>
<path d="M98.0001 36.0368C98.0001 37.1288 97.0842 38.0389 95.9852 38.0389C94.8861 38.0389 93.9702 37.1288 93.9702 36.0368C93.9702 34.9448 94.8861 34.0348 95.9852 34.0348C97.0842 34.0348 98.0001 34.9448 98.0001 36.0368Z" fill="#01512C"/>
<path d="M3.84679 52.9632C3.84679 54.0552 2.9309 54.9652 1.83183 54.9652C0.732767 54.9652 -0.183121 54.0552 -0.183121 52.9632C-0.183121 51.8712 0.732767 50.9612 1.83183 50.9612C2.9309 51.1432 3.84679 52.0532 3.84679 52.9632Z" fill="#01512C"/>
<path d="M22.7141 52.9632C22.7141 54.0552 21.7983 54.9652 20.6992 54.9652C19.6001 54.9652 18.6842 54.0552 18.6842 52.9632C18.6842 51.8712 19.6001 50.9612 20.6992 50.9612C21.7983 51.1432 22.7141 52.0532 22.7141 52.9632Z" fill="#01512C"/>
<path d="M41.5813 52.9632C41.5813 54.0552 40.6655 54.9652 39.5664 54.9652C38.4673 54.9652 37.5514 54.0552 37.5514 52.9632C37.5514 51.8712 38.4673 50.9612 39.5664 50.9612C40.6655 51.1432 41.5813 52.0532 41.5813 52.9632Z" fill="#01512C"/>
<path d="M60.2656 52.9632C60.2656 54.0552 59.3497 54.9652 58.2506 54.9652C57.1516 54.9652 56.2357 54.0552 56.2357 52.9632C56.2357 51.8712 57.1516 50.9612 58.2506 50.9612C59.5329 51.1432 60.2656 52.0532 60.2656 52.9632Z" fill="#01512C"/>
<path d="M79.1328 52.9632C79.1328 54.0552 78.2169 54.9652 77.1178 54.9652C76.0187 54.9652 75.1029 54.0552 75.1029 52.9632C75.1029 51.8712 76.0187 50.9612 77.1178 50.9612C78.2169 51.1432 79.1328 52.0532 79.1328 52.9632Z" fill="#01512C"/>
<path d="M98.0001 52.9632C98.0001 54.0552 97.0842 54.9652 95.9852 54.9652C94.8861 54.9652 93.9702 54.0552 93.9702 52.9632C93.9702 51.8712 94.8861 50.9612 95.9852 50.9612C97.0842 50.9612 98.0001 52.0532 98.0001 52.9632Z" fill="#01512C"/>
<path d="M2.01495 72.0736C3.12778 72.0736 4.02991 71.1773 4.02991 70.0716C4.02991 68.9659 3.12778 68.0695 2.01495 68.0695C0.902125 68.0695 0 68.9659 0 70.0716C0 71.1773 0.902125 72.0736 2.01495 72.0736Z" fill="#01512C"/>
<path d="M20.699 72.0736C21.8118 72.0736 22.7139 71.1773 22.7139 70.0716C22.7139 68.9659 21.8118 68.0695 20.699 68.0695C19.5861 68.0695 18.684 68.9659 18.684 70.0716C18.684 71.1773 19.5861 72.0736 20.699 72.0736Z" fill="#01512C"/>
<path d="M41.5813 70.0716C41.5813 71.1636 40.6655 72.0736 39.5664 72.0736C38.4673 72.0736 37.5514 71.1636 37.5514 70.0716C37.5514 68.9795 38.4673 68.0695 39.5664 68.0695C40.6655 68.0695 41.5813 68.9795 41.5813 70.0716Z" fill="#01512C"/>
<path d="M60.2654 70.0716C60.2654 71.1636 59.3495 72.0736 58.2504 72.0736C57.1513 72.0736 56.2354 71.1636 56.2354 70.0716C56.2354 68.9795 57.1513 68.0695 58.2504 68.0695C59.5326 68.0695 60.2654 68.9795 60.2654 70.0716Z" fill="#01512C"/>
<path d="M79.1327 70.0716C79.1327 71.1636 78.2168 72.0736 77.1178 72.0736C76.0187 72.0736 75.1028 71.1636 75.1028 70.0716C75.1028 68.9795 76.0187 68.0695 77.1178 68.0695C78.2168 68.0695 79.1327 68.9795 79.1327 70.0716Z" fill="#01512C"/>
<path d="M98.0001 70.0716C98.0001 71.1636 97.0842 72.0736 95.9851 72.0736C94.886 72.0736 93.9701 71.1636 93.9701 70.0716C93.9701 68.9795 94.886 68.0695 95.9851 68.0695C97.0842 68.0695 98.0001 68.9795 98.0001 70.0716Z" fill="#01512C"/>
<path d="M2.01495 89.182C3.12778 89.182 4.02991 88.2856 4.02991 87.1799C4.02991 86.0742 3.12778 85.1779 2.01495 85.1779C0.902125 85.1779 0 86.0742 0 87.1799C0 88.2856 0.902125 89.182 2.01495 89.182Z" fill="#01512C"/>
<path d="M20.699 89.182C21.8118 89.182 22.7139 88.2856 22.7139 87.1799C22.7139 86.0742 21.8118 85.1779 20.699 85.1779C19.5861 85.1779 18.684 86.0742 18.684 87.1799C18.684 88.2856 19.5861 89.182 20.699 89.182Z" fill="#01512C"/>
<path d="M41.5813 87.1799C41.5813 88.272 40.6655 89.182 39.5664 89.182C38.4673 89.182 37.5514 88.272 37.5514 87.1799C37.5514 86.0879 38.4673 85.1779 39.5664 85.1779C40.6655 85.1779 41.5813 86.0879 41.5813 87.1799Z" fill="#01512C"/>
<path d="M60.2654 87.1799C60.2654 88.272 59.3495 89.182 58.2504 89.182C57.1513 89.182 56.2354 88.272 56.2354 87.1799C56.2354 86.0879 57.1513 85.1779 58.2504 85.1779C59.5326 85.1779 60.2654 86.0879 60.2654 87.1799Z" fill="#01512C"/>
<path d="M79.1327 87.1799C79.1327 88.272 78.2168 89.182 77.1178 89.182C76.0187 89.182 75.1028 88.272 75.1028 87.1799C75.1028 86.0879 76.0187 85.1779 77.1178 85.1779C78.2168 85.1779 79.1327 86.0879 79.1327 87.1799Z" fill="#01512C"/>
<path d="M98.0001 87.1799C98.0001 88.272 97.0842 89.182 95.9851 89.182C94.886 89.182 93.9701 88.272 93.9701 87.1799C93.9701 86.0879 94.886 85.1779 95.9851 85.1779C97.0842 85.1779 98.0001 86.0879 98.0001 87.1799Z" fill="#01512C"/>
</g>
<defs>
<clipPath id="clip0">
<rect width="98" height="89" fill="white" transform="translate(112)"/>
</clipPath>
<clipPath id="clip1">
<rect width="98" height="89" fill="white"/>
</clipPath>
</defs>
</svg>
