<svg width="224" height="224" viewBox="0 0 224 224" fill="none" xmlns="http://www.w3.org/2000/svg">
<g opacity="0.5">
<path d="M108.308 3.28205C107.487 4.10256 106.256 4.10256 105.641 3.28205C104.82 2.46154 104.82 1.23077 105.641 0.615385C106.461 -0.205128 107.692 -0.205128 108.308 0.615385C109.128 1.23077 109.128 2.46154 108.308 3.28205Z" fill="#77BC1F"/>
<path d="M131.282 26.2564C130.461 27.0769 129.231 27.0769 128.615 26.2564C127.795 25.4359 127.795 24.2051 128.615 23.5898C129.436 22.7692 130.667 22.7692 131.282 23.5898C132.102 24.4103 132.102 25.641 131.282 26.2564Z" fill="#77BC1F"/>
<path d="M153.026 49.8462C154.045 49.8462 154.872 49.0196 154.872 48C154.872 46.9804 154.045 46.1539 153.026 46.1539C152.006 46.1539 151.179 46.9804 151.179 48C151.179 49.0196 152.006 49.8462 153.026 49.8462Z" fill="#77BC1F"/>
<path d="M177.436 72.4102C176.615 73.2307 175.385 73.2307 174.769 72.4102C173.949 71.5897 173.949 70.3589 174.769 69.7436C175.59 68.923 176.82 68.923 177.436 69.7436C178.051 70.3589 178.051 71.5897 177.436 72.4102Z" fill="#77BC1F"/>
<path d="M200.41 95.3846C199.59 96.2051 198.359 96.2051 197.744 95.3846C196.923 94.5641 196.923 93.3333 197.744 92.7179C198.564 91.8974 199.795 91.8974 200.41 92.7179C201.231 93.3333 201.231 94.5641 200.41 95.3846Z" fill="#77BC1F"/>
<path d="M222.154 118.974C223.173 118.974 224 118.148 224 117.128C224 116.109 223.173 115.282 222.154 115.282C221.134 115.282 220.308 116.109 220.308 117.128C220.308 118.148 221.134 118.974 222.154 118.974Z" fill="#77BC1F"/>
<path d="M86.1538 24.6154C87.1734 24.6154 88 23.7889 88 22.7693C88 21.7496 87.1734 20.9231 86.1538 20.9231C85.1342 20.9231 84.3077 21.7496 84.3077 22.7693C84.3077 23.7889 85.1342 24.6154 86.1538 24.6154Z" fill="#77BC1F"/>
<path d="M110.359 47.1795C109.538 48 108.308 48 107.692 47.1795C106.872 46.359 106.872 45.1282 107.692 44.5128C108.513 43.6923 109.744 43.6923 110.359 44.5128C111.179 45.1282 111.179 46.359 110.359 47.1795Z" fill="#77BC1F"/>
<path d="M133.539 70.1539C132.718 70.9744 131.487 70.9744 130.872 70.1539C130.051 69.3334 130.051 68.1026 130.872 67.4872C131.692 66.6667 132.923 66.6667 133.539 67.4872C134.154 68.3077 134.154 69.5385 133.539 70.1539Z" fill="#77BC1F"/>
<path d="M156.513 93.1283C155.692 93.9488 154.461 93.9488 153.846 93.1283C153.026 92.3077 153.026 91.077 153.846 90.4616C154.667 89.6411 155.897 89.6411 156.513 90.4616C157.128 91.2821 157.128 92.5129 156.513 93.1283Z" fill="#77BC1F"/>
<path d="M178.051 116.718C179.071 116.718 179.898 115.891 179.898 114.872C179.898 113.852 179.071 113.026 178.051 113.026C177.032 113.026 176.205 113.852 176.205 114.872C176.205 115.891 177.032 116.718 178.051 116.718Z" fill="#77BC1F"/>
<path d="M202.462 139.282C201.641 140.103 200.41 140.103 199.795 139.282C198.974 138.462 198.974 137.231 199.795 136.615C200.615 135.795 201.846 135.795 202.462 136.615C203.282 137.231 203.282 138.462 202.462 139.282Z" fill="#77BC1F"/>
<path d="M66.4616 45.1282C65.6411 45.9487 64.4103 45.9487 63.795 45.1282C62.9744 44.3077 62.9744 43.0769 63.795 42.4615C64.6155 41.641 65.8462 41.641 66.4616 42.4615C67.2821 43.0769 67.2821 44.3077 66.4616 45.1282Z" fill="#77BC1F"/>
<path d="M89.6412 68.1025C88.8207 68.9231 87.5899 68.9231 86.9745 68.1025C86.154 67.282 86.154 66.0513 86.9745 65.4359C87.795 64.6154 89.0258 64.6154 89.6412 65.4359C90.2566 66.0513 90.2566 67.282 89.6412 68.1025Z" fill="#77BC1F"/>
<path d="M111.18 91.4872C112.199 91.4872 113.026 90.6606 113.026 89.641C113.026 88.6214 112.199 87.7949 111.18 87.7949C110.16 87.7949 109.333 88.6214 109.333 89.641C109.333 90.6606 110.16 91.4872 111.18 91.4872Z" fill="#77BC1F"/>
<path d="M135.59 114.051C134.769 114.872 133.539 114.872 132.923 114.051C132.103 113.231 132.103 112 132.923 111.385C133.744 110.564 134.974 110.564 135.59 111.385C136.41 112.205 136.41 113.436 135.59 114.051Z" fill="#77BC1F"/>
<path d="M158.564 137.231C157.744 138.051 156.513 138.051 155.898 137.231C155.077 136.41 155.077 135.179 155.898 134.564C156.718 133.744 157.949 133.744 158.564 134.564C159.385 135.179 159.385 136.41 158.564 137.231Z" fill="#77BC1F"/>
<path d="M181.744 160.205C180.923 161.026 179.692 161.026 179.077 160.205C178.256 159.385 178.256 158.154 179.077 157.538C179.897 156.718 181.128 156.718 181.744 157.538C182.359 158.154 182.359 159.385 181.744 160.205Z" fill="#77BC1F"/>
<path d="M45.5384 65.8461C44.7179 66.6667 43.4871 66.6667 42.8717 65.8461C42.0512 65.0256 42.0512 63.7949 42.8717 63.1795C43.6922 62.359 44.923 62.359 45.5384 63.1795C46.3589 64 46.3589 65.2308 45.5384 65.8461Z" fill="#77BC1F"/>
<path d="M68.718 89.0257C67.8974 89.8462 66.6667 89.8462 66.0513 89.0257C65.2308 88.2051 65.2308 86.9744 66.0513 86.359C66.8718 85.5385 68.1026 85.5385 68.718 86.359C69.3333 86.9744 69.3333 88.2051 68.718 89.0257Z" fill="#77BC1F"/>
<path d="M91.6922 112C90.8717 112.821 89.6409 112.821 89.0255 112C88.205 111.179 88.205 109.949 89.0255 109.333C89.8461 108.513 91.0768 108.513 91.6922 109.333C92.5127 109.949 92.5127 111.179 91.6922 112Z" fill="#77BC1F"/>
<path d="M114.667 134.974C113.846 135.795 112.615 135.795 112 134.974C111.179 134.154 111.179 132.923 112 132.308C112.82 131.487 114.051 131.487 114.667 132.308C115.487 133.128 115.487 134.154 114.667 134.974Z" fill="#77BC1F"/>
<path d="M137.641 157.949C136.82 158.769 135.59 158.769 134.974 157.949C134.154 157.128 134.154 155.897 134.974 155.282C135.795 154.461 137.026 154.461 137.641 155.282C138.462 156.103 138.462 157.333 137.641 157.949Z" fill="#77BC1F"/>
<path d="M160.82 181.128C160 181.949 158.769 181.949 158.154 181.128C157.333 180.308 157.333 179.077 158.154 178.462C158.974 177.641 160.205 177.641 160.82 178.462C161.436 179.077 161.436 180.308 160.82 181.128Z" fill="#77BC1F"/>
<path d="M24.8205 86.7692C24 87.5897 22.7692 87.5897 22.1538 86.7692C21.3333 85.9487 21.3333 84.718 22.1538 84.1026C22.9744 83.2821 24.2051 83.2821 24.8205 84.1026C25.4359 84.9231 25.4359 86.1539 24.8205 86.7692Z" fill="#77BC1F"/>
<path d="M47.7947 109.744C46.9742 110.564 45.7435 110.564 45.1281 109.744C44.3076 108.923 44.3076 107.692 45.1281 107.077C45.9486 106.256 47.1794 106.256 47.7947 107.077C48.6153 107.897 48.6153 109.128 47.7947 109.744Z" fill="#77BC1F"/>
<path d="M70.7693 132.923C69.9488 133.744 68.718 133.744 68.1026 132.923C67.2821 132.103 67.2821 130.872 68.1026 130.256C68.9231 129.436 70.1539 129.436 70.7693 130.256C71.5898 130.872 71.5898 132.103 70.7693 132.923Z" fill="#77BC1F"/>
<path d="M93.7435 155.897C92.923 156.718 91.6923 156.718 91.0769 155.897C90.2564 155.077 90.2564 153.846 91.0769 153.231C91.8974 152.41 93.1281 152.41 93.7435 153.231C94.564 153.846 94.564 155.077 93.7435 155.897Z" fill="#77BC1F"/>
<path d="M116.923 178.872C116.103 179.692 114.872 179.692 114.256 178.872C113.436 178.051 113.436 176.82 114.256 176.205C115.077 175.385 116.308 175.385 116.923 176.205C117.538 177.026 117.538 178.256 116.923 178.872Z" fill="#77BC1F"/>
<path d="M138.462 202.462C139.481 202.462 140.308 201.635 140.308 200.615C140.308 199.596 139.481 198.769 138.462 198.769C137.442 198.769 136.615 199.596 136.615 200.615C136.615 201.635 137.442 202.462 138.462 202.462Z" fill="#77BC1F"/>
<path d="M3.28205 108.308C2.46154 109.128 1.23077 109.128 0.615385 108.308C-0.205128 107.487 -0.205128 106.256 0.615385 105.641C1.4359 104.821 2.66667 104.821 3.28205 105.641C4.10256 106.256 4.10256 107.487 3.28205 108.308Z" fill="#77BC1F"/>
<path d="M25.0257 131.897C26.0453 131.897 26.8719 131.071 26.8719 130.051C26.8719 129.032 26.0453 128.205 25.0257 128.205C24.0061 128.205 23.1796 129.032 23.1796 130.051C23.1796 131.071 24.0061 131.897 25.0257 131.897Z" fill="#77BC1F"/>
<path d="M49.2308 154.256C48.4103 155.077 47.1796 155.077 46.5642 154.256C45.7437 153.436 45.7437 152.205 46.5642 151.59C47.3847 150.769 48.6155 150.769 49.2308 151.59C50.0513 152.41 50.0513 153.641 49.2308 154.256Z" fill="#77BC1F"/>
<path d="M72.4102 177.436C71.5897 178.256 70.3589 178.256 69.7435 177.436C68.923 176.615 68.923 175.385 69.7435 174.769C70.564 173.949 71.7948 173.949 72.4102 174.769C73.0256 175.385 73.0256 176.615 72.4102 177.436Z" fill="#77BC1F"/>
<path d="M95.3846 200.41C94.5641 201.231 93.3334 201.231 92.718 200.41C91.8975 199.59 91.8975 198.359 92.718 197.744C93.5385 196.923 94.7693 196.923 95.3846 197.744C96.2052 198.359 96.2052 199.59 95.3846 200.41Z" fill="#77BC1F"/>
<path d="M118.359 223.385C117.538 224.205 116.308 224.205 115.692 223.385C114.872 222.564 114.872 221.333 115.692 220.718C116.513 219.897 117.744 219.897 118.359 220.718C119.179 221.538 119.179 222.769 118.359 223.385Z" fill="#77BC1F"/>
</g>
</svg>
