<svg width="201" height="268" viewBox="0 0 201 268" fill="none" xmlns="http://www.w3.org/2000/svg">
<path opacity="0.3" fill-rule="evenodd" clip-rule="evenodd" d="M-5.8056 194.125C-4.02165 196.253 -2.12911 198.322 -0.127986 200.323C1.87314 202.324 3.94173 204.217 6.07047 206.001L-5.8056 194.125ZM20.9891 216.239L-16.0438 179.206C-17.7631 176.096 -19.2936 172.909 -20.6353 169.663L30.5325 220.83C27.2862 219.489 24.0994 217.958 20.9891 216.239ZM37.9053 223.523C40.1696 224.244 42.4557 224.878 44.7583 225.424L-25.2288 155.437C-24.6825 157.739 -24.0488 160.026 -23.3275 162.29L37.9053 223.523ZM-26.4279 149.557L50.638 226.623C52.5494 226.95 54.4691 227.218 56.3939 227.427L-27.232 143.801C-27.023 145.726 -26.755 147.646 -26.4279 149.557ZM-27.6468 138.706L61.4891 227.842C63.1851 227.934 64.883 227.981 66.581 227.982L-27.7868 133.614C-27.7856 135.312 -27.739 137.01 -27.6468 138.706ZM-27.6798 129.041L71.1545 227.875C72.6962 227.802 74.2365 227.691 75.7738 227.542L-27.3474 124.421C-27.4958 125.959 -27.6066 127.499 -27.6798 129.041ZM-26.8496 120.238L79.9566 227.045C81.3777 226.844 82.7951 226.61 84.2076 226.344L-26.1488 115.987C-26.4148 117.4 -26.6484 118.817 -26.8496 120.238ZM-25.3364 112.119L88.0757 225.531C89.3967 225.225 90.7125 224.89 92.0219 224.526L-24.3308 108.173C-24.6948 109.483 -25.03 110.798 -25.3364 112.119ZM-23.252 104.572L95.6235 223.447C96.8581 223.05 98.0862 222.627 99.3068 222.178L-21.9833 100.888C-22.4323 102.109 -22.8551 103.337 -23.252 104.572ZM-20.6706 97.5205L102.675 220.866C103.832 220.389 104.982 219.888 106.123 219.363L-19.1676 94.0717C-19.6926 95.2132 -20.1936 96.3631 -20.6706 97.5205ZM-17.6438 90.9151L109.28 217.839C110.367 217.289 111.445 216.716 112.515 216.122L-15.9267 87.6803C-16.5214 88.7497 -17.0938 89.8282 -17.6438 90.9151ZM-14.208 84.7186L115.477 214.403C116.498 213.785 117.51 213.146 118.512 212.486L-12.2914 81.6834C-12.9513 82.6855 -13.5902 83.6974 -14.208 84.7186ZM-10.3894 78.9048L121.29 210.584C122.249 209.903 123.198 209.201 124.136 208.479L-8.28381 76.0586C-9.00573 76.9971 -9.7076 77.946 -10.3894 78.9048ZM-6.20697 73.455L126.74 206.402C127.639 205.659 128.527 204.896 129.405 204.115L-3.91967 70.7905C-4.7013 71.6677 -5.46373 72.5561 -6.20697 73.455ZM-1.67369 68.3559L131.839 201.869C132.371 201.361 132.898 200.846 133.421 200.323C133.725 200.019 134.027 199.712 134.327 199.405L0.790373 65.8682C0.482711 66.1677 0.176578 66.4698 -0.127986 66.7743C-0.650628 67.297 -1.16586 67.8242 -1.67369 68.3559ZM3.20235 63.5997L136.595 196.993C137.385 196.124 138.155 195.243 138.907 194.352L5.84269 61.2882C4.95177 62.0396 4.07148 62.8101 3.20235 63.5997ZM8.42319 59.1882L141.007 191.772C141.737 190.842 142.447 189.901 143.137 188.951L11.2444 57.0577C10.2939 57.7479 9.35325 58.4581 8.42319 59.1882ZM13.9989 55.1316L145.063 186.196C145.732 185.203 146.38 184.2 147.006 183.187L17.0081 53.1889C15.9955 53.8155 14.9923 54.4631 13.9989 55.1316ZM19.9445 51.4448L148.75 180.251C149.354 179.191 149.936 178.121 150.495 177.044L23.1515 49.7C22.0737 50.2594 21.0045 50.841 19.9445 51.4448ZM26.2809 48.1489L152.046 173.914C152.581 172.783 153.092 171.643 153.579 170.495L29.6997 46.616C28.5522 47.1032 27.4123 47.6142 26.2809 48.1489ZM33.0378 45.2735L154.922 167.157C155.381 165.948 155.815 164.731 156.223 163.507L36.6878 43.9718C35.4642 44.3799 34.2472 44.8139 33.0378 45.2735ZM40.2562 42.8596L157.335 159.939C157.712 158.642 158.059 157.339 158.379 156.03L44.1648 41.8164C42.8561 42.1358 41.5529 42.4835 40.2562 42.8596ZM47.9945 40.9655L159.23 152.201C159.51 150.803 159.758 149.4 159.975 147.994L52.2011 40.2204C50.7946 40.4369 49.392 40.6853 47.9945 40.9655ZM56.3377 39.6765L160.519 143.857C160.684 142.339 160.814 140.817 160.906 139.293L60.9023 39.2893C59.3785 39.3816 57.8565 39.5106 56.3377 39.6765ZM65.417 39.1235L161.072 134.778C161.093 133.105 161.071 131.431 161.004 129.759L70.4365 39.1911C68.7641 39.1244 67.0903 39.1018 65.417 39.1235ZM75.4501 39.5243L160.671 124.745C160.495 122.857 160.263 120.973 159.974 119.096L81.0992 40.2216C79.2223 39.9325 77.3384 39.7 75.4501 39.5243ZM86.8479 41.2897L158.905 113.347C158.418 111.111 157.849 108.89 157.197 106.687L93.5077 42.9976C91.3052 42.3464 89.0837 41.7771 86.8479 41.2897ZM100.594 45.4029L154.792 99.6015C153.627 96.5717 152.3 93.5899 150.812 90.6693L109.526 49.3834C106.605 47.8947 103.623 46.5679 100.594 45.4029ZM121.449 56.6258L143.569 78.7464C140.571 74.5491 137.189 70.5421 133.421 66.7743C129.653 63.0066 125.646 59.6237 121.449 56.6258Z" fill="url(#paint0_linear)"/>
<defs>
<linearGradient id="paint0_linear" x1="-0.127986" y1="66.7743" x2="133.421" y2="200.323" gradientUnits="userSpaceOnUse">
<stop stop-color="#77BC1F"/>
<stop offset="1" stop-color="#77BC1F" stop-opacity="0"/>
</linearGradient>
</defs>
</svg>
