<svg width="163" height="239" viewBox="0 0 163 239" fill="none" xmlns="http://www.w3.org/2000/svg">
<path opacity="0.1" fill-rule="evenodd" clip-rule="evenodd" d="M50.9208 167.803C53.6514 171.67 56.747 175.357 60.2077 178.818C63.6684 182.278 67.3559 185.374 71.2224 188.105L50.9208 167.803ZM81.6793 194.398L44.6277 157.346C43.3196 154.762 42.1537 152.123 41.13 149.443L89.5821 197.895C86.9021 196.872 84.2639 195.706 81.6793 194.398ZM95.8642 200.014C97.8187 200.588 99.79 201.089 101.774 201.518L37.5073 137.252C37.9363 139.235 38.4378 141.207 39.0117 143.161L95.8642 200.014ZM36.5672 132.148L106.878 202.458C108.545 202.712 110.218 202.916 111.895 203.07L35.9553 127.131C36.109 128.808 36.313 130.481 36.5672 132.148ZM35.6653 122.677L116.348 203.36C117.834 203.418 119.321 203.436 120.808 203.415L35.6109 118.217C35.5898 119.704 35.6079 121.191 35.6653 122.677ZM35.763 114.206L124.82 203.262C126.174 203.179 127.526 203.063 128.876 202.914L36.1118 110.15C35.9629 111.499 35.8467 112.852 35.763 114.206ZM36.5994 106.473L132.552 202.426C133.802 202.232 135.049 202.01 136.291 201.76L37.2658 102.735C37.0154 103.977 36.7933 105.223 36.5994 106.473ZM38.0258 99.3308L139.695 201C140.858 200.714 142.016 200.404 143.169 200.069L38.9569 95.8568C38.6214 97.0093 38.311 98.1676 38.0258 99.3308ZM39.9489 92.685L146.34 199.077C147.428 198.712 148.51 198.326 149.585 197.916L41.1096 89.4406C40.6999 90.5156 40.3129 91.5973 39.9489 92.685ZM42.3063 86.4734L152.552 196.719C153.572 196.285 154.585 195.83 155.591 195.353L43.6724 83.4344C43.1959 84.4401 42.7406 85.4533 42.3063 86.4734ZM45.0544 80.6527L158.373 193.971C159.331 193.473 160.281 192.954 161.224 192.417L46.6088 77.8019C46.071 78.7442 45.5529 79.6946 45.0544 80.6527ZM48.1625 75.1918L163.834 190.863C164.734 190.305 165.626 189.728 166.508 189.133L49.8928 72.517C49.2974 73.3999 48.7206 74.2917 48.1625 75.1918ZM51.6081 70.0685L168.957 187.417C169.802 186.803 170.638 186.17 171.465 185.52L53.5055 67.5608C52.8553 68.3875 52.2229 69.2236 51.6081 70.0685ZM55.3755 65.267L173.758 183.65C174.55 182.981 175.333 182.295 176.105 181.592L57.4337 62.9201C56.7307 63.6926 56.0446 64.4751 55.3755 65.267ZM59.4536 60.7763L178.249 179.572C178.505 179.322 178.759 179.071 179.013 178.818C179.495 178.335 179.971 177.848 180.439 177.357L61.6687 58.5861C61.1774 59.0546 60.6903 59.5301 60.2077 60.0127C59.9544 60.266 59.703 60.5205 59.4536 60.7763ZM63.8362 56.5899L182.436 175.189C183.13 174.408 183.808 173.617 184.468 172.817L66.2085 54.5571C65.4082 55.2176 64.6173 55.8952 63.8362 56.5899ZM68.5266 52.7114L186.314 170.499C186.956 169.663 187.579 168.818 188.185 167.965L71.0606 50.8403C70.207 51.4462 69.3622 52.0699 68.5266 52.7114ZM73.5344 49.1503L189.875 165.491C190.462 164.599 191.029 163.698 191.578 162.789L76.2367 47.4474C75.3276 47.9962 74.4266 48.5639 73.5344 49.1503ZM78.8735 45.9204L193.105 160.152C193.633 159.2 194.142 158.24 194.63 157.272L81.7534 44.3952C80.7858 44.8837 79.8256 45.3921 78.8735 45.9204ZM84.5638 43.0418L195.984 154.462C196.45 153.445 196.895 152.422 197.318 151.391L87.6343 41.7072C86.6038 42.1307 85.5801 42.5756 84.5638 43.0418ZM90.6327 40.5418L198.484 148.393C198.882 147.306 199.257 146.213 199.609 145.113L93.9119 39.416C92.8128 39.768 91.7195 40.1433 90.6327 40.5418ZM97.1187 38.4589L200.567 141.907C200.889 140.741 201.186 139.569 201.458 138.393L100.632 37.5674C99.4562 37.839 98.2846 38.1362 97.1187 38.4589ZM104.077 36.8478L202.178 134.949C202.413 133.691 202.62 132.429 202.797 131.163L107.862 36.228C106.597 36.4058 105.334 36.6124 104.077 36.8478ZM111.587 35.7891L203.236 127.439C203.367 126.07 203.464 124.698 203.528 123.325L115.701 35.4978C114.328 35.5614 112.956 35.6585 111.587 35.7891ZM119.774 35.4075L203.618 119.251C203.615 117.739 203.571 116.226 203.487 114.716L124.31 35.5381C122.799 35.454 121.287 35.4105 119.774 35.4075ZM128.849 35.9139L203.112 110.176C202.923 108.461 202.681 106.75 202.387 105.047L133.979 36.6382C132.275 36.344 130.565 36.1026 128.849 35.9139ZM139.22 37.716L201.309 99.805C200.818 97.7508 200.249 95.7115 199.601 93.6918L145.334 39.424C143.314 38.7763 141.275 38.207 139.22 37.716ZM151.918 41.8442L197.181 87.1078C195.971 84.1997 194.591 81.3457 193.04 78.5613L160.464 45.9856C157.68 44.4346 154.826 43.0541 151.918 41.8442ZM174.19 55.5473L183.478 64.8359C182.064 63.1848 180.576 61.5756 179.013 60.0127C177.45 58.4498 175.841 56.9613 174.19 55.5473Z" fill="url(#paint0_linear)"/>
<defs>
<linearGradient id="paint0_linear" x1="60.2077" y1="60.0127" x2="181.097" y2="180.902" gradientUnits="userSpaceOnUse">
<stop stop-color="white"/>
<stop offset="1" stop-color="white" stop-opacity="0"/>
</linearGradient>
</defs>
</svg>
