<svg width="1018" height="786" viewBox="0 0 1018 786" fill="none" xmlns="http://www.w3.org/2000/svg">
<path fill-rule="evenodd" clip-rule="evenodd" d="M41.1712 0H976.829C999.454 0 1018 18.5879 1018 41.2638V785.482H0V41.2638C0 18.5879 18.5462 0 41.1712 0Z" fill="#EBFFEB"/>
<path d="M987.717 35.7344H30.3447V555.503H987.717V35.7344Z" fill="#96D9C9"/>
<path fill-rule="evenodd" clip-rule="evenodd" d="M766.709 36.1479H843.677C842.783 41.6356 842.336 47.2508 842.336 52.9937C842.336 112.656 890.753 161.023 950.475 161.023C963.569 161.023 976.089 158.726 987.714 154.451V233.638C975.706 236.127 963.25 237.403 950.475 237.403C848.532 237.403 765.942 154.898 765.942 53.0575C765.942 47.3146 766.198 41.6994 766.709 36.1479Z" fill="#50BFA5"/>
<path fill-rule="evenodd" clip-rule="evenodd" d="M509 205.163C558.651 205.163 598.881 245.612 598.881 295.533C598.881 345.453 558.651 385.902 509 385.902C459.349 385.902 419.119 345.453 419.119 295.533C419.119 245.612 459.413 205.163 509 205.163Z" fill="white"/>
<path fill-rule="evenodd" clip-rule="evenodd" d="M483.878 246.196L521.641 267.967L559.405 289.738C561.517 290.955 562.733 293.068 562.733 295.565C562.733 298.062 561.517 300.175 559.405 301.392L521.641 323.163L483.878 344.934C481.766 346.151 479.27 346.151 477.157 344.934C475.045 343.717 473.829 341.604 473.829 339.107V295.501V251.895C473.829 249.398 475.045 247.284 477.157 246.068C479.27 244.915 481.702 244.915 483.878 246.196Z" fill="#6DBE06"/>
<path fill-rule="evenodd" clip-rule="evenodd" d="M503.67 498.253H894.369C897.365 498.253 899.786 500.656 899.786 503.627C899.786 506.598 897.365 509 894.369 509H503.67C500.675 509 498.253 506.598 498.253 503.627C498.253 500.656 500.675 498.253 503.67 498.253Z" fill="#256653"/>
<path fill-rule="evenodd" clip-rule="evenodd" d="M124.023 484.909L138.549 493.157L153.075 501.406C153.911 501.85 154.361 502.675 154.361 503.627C154.361 504.578 153.911 505.34 153.075 505.847L138.549 514.096L124.023 522.344C123.188 522.788 122.288 522.788 121.452 522.344C120.617 521.9 120.167 521.075 120.167 520.124V503.69V487.13C120.167 486.178 120.617 485.416 121.452 484.909C122.224 484.465 123.188 484.465 124.023 484.909Z" fill="#E9E5FF"/>
<path fill-rule="evenodd" clip-rule="evenodd" d="M187.136 498.253H665.756C668.753 498.253 671.176 500.656 671.176 503.627C671.176 506.598 668.753 509 665.756 509H187.136C184.139 509 181.716 506.598 181.716 503.627C181.716 500.656 184.203 498.253 187.136 498.253Z" fill="#E9E5FF"/>
<path fill-rule="evenodd" clip-rule="evenodd" d="M671.665 513.884C677.295 513.884 681.924 509.318 681.924 503.626C681.924 497.997 677.357 493.368 671.665 493.368C666.036 493.368 661.407 497.934 661.407 503.626C661.407 509.256 665.973 513.884 671.665 513.884Z" fill="#E9E5FF"/>
<path fill-rule="evenodd" clip-rule="evenodd" d="M688.65 594.501C688.522 594.501 688.395 594.501 688.331 594.501H681.434C681.689 594.306 681.881 594.046 681.944 593.721L682.328 592.68C683.03 590.86 683.349 588.974 683.286 587.024C683.222 586.048 682.455 585.203 681.434 585.203C680.603 585.203 679.901 585.723 679.645 586.569L678.879 589.169C678.815 589.364 678.687 589.624 678.56 589.82L674.025 595.736C673.962 595.801 673.962 595.801 673.898 595.866C673.004 596.907 672.493 598.402 672.493 599.898V609.391C672.493 610.041 673.004 610.626 673.706 610.626H681.881H683.03H683.988H687.437H687.692C689.48 610.626 690.949 609.261 691.141 607.44L691.971 598.402C692.035 597.362 691.779 596.452 691.077 595.736C690.502 594.891 689.672 594.501 688.65 594.501ZM664.254 611.341H670.002C670.513 611.341 670.896 610.886 670.896 610.366V597.232C670.896 596.712 670.513 596.257 670.002 596.257H664.254C663.744 596.257 663.36 596.712 663.36 597.232V610.366C663.36 610.886 663.807 611.341 664.254 611.341ZM780.549 614.007C780.677 614.007 780.804 614.007 780.868 614.007H787.765C787.51 614.202 787.318 614.462 787.255 614.787L786.871 615.828C786.169 617.648 785.85 619.534 785.913 621.484C785.977 622.46 786.744 623.305 787.765 623.305C788.596 623.305 789.298 622.785 789.554 621.939L790.32 619.339C790.384 619.144 790.511 618.884 790.639 618.688L795.174 612.772C795.237 612.707 795.237 612.707 795.301 612.642C796.195 611.601 796.706 610.106 796.706 608.61V599.117C796.706 598.467 796.195 597.882 795.493 597.882H787.318H786.169H785.211H781.762H781.507C779.719 597.882 778.25 599.247 778.058 601.068L777.228 610.106C777.164 611.146 777.42 612.056 778.122 612.772C778.761 613.617 779.591 614.007 780.549 614.007ZM804.945 597.167H799.197C798.686 597.167 798.303 597.622 798.303 598.142V611.276C798.303 611.796 798.686 612.251 799.197 612.251H804.945C805.455 612.251 805.839 611.796 805.839 611.276V598.142C805.839 597.622 805.455 597.167 804.945 597.167ZM704.041 597.947H746.51V611.341H704.041V597.947ZM817.909 597.947H860.378V611.341H817.909V597.947ZM915.044 597.947H984.783V611.341H915.044V597.947ZM898.695 607.505C893.586 607.31 887.328 608.35 883.113 614.722C884.709 605.619 891.032 600.093 898.759 599.508V593.916L908.403 603.734L898.759 613.552V607.115L898.695 607.505Z" fill="#CFCFCF"/>
<path fill-rule="evenodd" clip-rule="evenodd" d="M976.169 698.532H775.531C770.81 698.532 766.919 702.423 766.919 707.143V745.607C766.919 750.328 770.81 754.219 775.531 754.219H976.169C980.89 754.219 984.782 750.328 984.782 745.607V707.143C984.846 702.423 980.954 698.532 976.169 698.532Z" fill="#6DBE06"/>
<path d="M934.958 732.179V734.487H924.064V718.2H934.703V720.508H926.485V724.933H934.066V727.241H926.485V732.179H934.958ZM916.101 732.179C916.483 732.179 916.802 732.115 917.184 731.986C917.503 731.858 917.821 731.666 918.076 731.409C918.331 731.153 918.522 730.896 918.649 730.576C918.777 730.255 918.84 729.934 918.84 729.55C918.84 729.165 918.777 728.844 918.649 728.524C918.522 728.203 918.331 727.947 918.076 727.69C917.821 727.434 917.566 727.241 917.184 727.113C916.866 726.985 916.483 726.921 916.101 726.921H911.961V732.115H916.101V732.179ZM911.961 724.933H915.974C916.611 724.933 917.184 724.74 917.63 724.291C918.076 723.843 918.267 723.33 918.267 722.752C918.267 722.175 918.076 721.662 917.63 721.213C917.184 720.764 916.611 720.572 915.974 720.572H911.961V724.933ZM918.904 725.83C919.35 726.087 919.732 726.408 920.051 726.792C920.369 727.113 920.624 727.562 920.879 728.011C921.134 728.524 921.261 729.101 921.261 729.87C921.261 730.512 921.134 731.089 920.879 731.666C920.624 732.243 920.242 732.692 919.796 733.141C919.35 733.59 918.777 733.91 918.14 734.167C917.503 734.423 916.802 734.552 916.101 734.552H909.54V718.264H915.974C916.611 718.264 917.184 718.392 917.758 718.648C918.331 718.905 918.84 719.225 919.223 719.61C919.669 719.995 919.987 720.508 920.178 721.021C920.433 721.534 920.561 722.175 920.561 722.752C920.561 723.265 920.497 723.714 920.306 724.099C920.115 724.484 919.923 724.804 919.732 725.061C919.541 725.382 919.223 725.638 918.904 725.83ZM905.717 734.552H903.297V718.264H905.717V734.552ZM891.32 725.766H895.334C895.652 725.766 895.971 725.702 896.289 725.574C896.608 725.446 896.863 725.253 897.054 724.997C897.245 724.74 897.436 724.484 897.563 724.163C897.691 723.843 897.755 723.522 897.755 723.137C897.755 722.752 897.691 722.432 897.563 722.111C897.436 721.791 897.245 721.534 897.054 721.278C896.863 721.021 896.608 720.829 896.289 720.7C895.971 720.572 895.716 720.508 895.334 720.508H891.32V725.766ZM894.123 728.075H891.32V734.552H888.9V718.264H895.334C895.971 718.264 896.608 718.392 897.245 718.648C897.818 718.905 898.328 719.226 898.774 719.674C899.22 720.123 899.538 720.636 899.793 721.213C900.048 721.791 900.175 722.432 900.175 723.137C900.175 724.099 899.984 724.869 899.602 725.446C899.22 726.023 898.837 726.536 898.392 726.856C897.882 727.241 897.245 727.562 896.608 727.818L900.557 734.552H897.882L894.123 728.075ZM873.866 726.408C873.866 727.305 873.993 728.075 874.311 728.844C874.63 729.614 875.012 730.255 875.522 730.768C876.031 731.281 876.541 731.73 877.178 732.051C877.815 732.371 878.452 732.5 879.153 732.5C879.79 732.5 880.3 732.435 880.809 732.243C881.319 732.051 881.765 731.794 882.147 731.473C882.529 731.153 882.848 730.768 883.103 730.383C883.357 729.934 883.549 729.486 883.676 729.037H886.224C886.033 729.806 885.714 730.576 885.332 731.217C884.95 731.922 884.44 732.499 883.803 733.012C883.23 733.525 882.529 733.91 881.701 734.231C880.937 734.552 880.045 734.68 879.153 734.68C878.134 734.68 877.114 734.487 876.223 734.038C875.267 733.59 874.503 733.013 873.738 732.307C873.037 731.538 872.464 730.704 872.082 729.678C871.636 728.652 871.445 727.562 871.445 726.408C871.445 725.253 871.636 724.163 872.082 723.137C872.528 722.111 873.037 721.278 873.738 720.508C874.439 719.739 875.267 719.161 876.223 718.777C877.178 718.328 878.134 718.135 879.153 718.135C880.045 718.135 880.873 718.264 881.637 718.584C882.402 718.905 883.103 719.29 883.676 719.803C884.249 720.316 884.759 720.893 885.205 721.598C885.651 722.304 885.906 723.009 886.097 723.778H883.548C883.421 723.265 883.23 722.817 882.975 722.432C882.72 721.983 882.402 721.662 882.02 721.342C881.637 721.021 881.255 720.764 880.746 720.572C880.3 720.38 879.726 720.316 879.153 720.316C878.516 720.316 877.815 720.444 877.178 720.765C876.541 721.085 875.968 721.47 875.522 722.047C875.012 722.56 874.63 723.201 874.311 723.971C873.993 724.676 873.866 725.51 873.866 726.408ZM858.704 722.624C858.704 722.047 858.831 721.47 859.086 720.957C859.341 720.444 859.723 719.931 860.169 719.482C860.679 719.033 861.252 718.713 861.889 718.456C862.526 718.2 863.291 718.071 864.055 718.071C864.82 718.071 865.52 718.2 866.157 718.456C866.794 718.713 867.368 719.097 867.814 719.546C868.26 719.995 868.642 720.508 868.897 721.149C869.151 721.726 869.279 722.432 869.279 723.137H866.858C866.858 722.304 866.603 721.598 866.094 721.085C865.584 720.572 864.883 720.316 864.055 720.316C863.609 720.316 863.227 720.38 862.845 720.508C862.462 720.636 862.144 720.829 861.889 721.021C861.634 721.278 861.443 721.47 861.316 721.791C861.188 722.047 861.125 722.368 861.125 722.624C861.125 723.201 861.316 723.65 861.762 723.971C862.208 724.291 862.717 724.548 863.354 724.74C863.991 724.933 864.692 725.189 865.393 725.382C866.157 725.574 866.858 725.895 867.431 726.279C868.068 726.664 868.578 727.113 869.024 727.754C869.47 728.331 869.661 729.165 869.661 730.127C869.661 730.704 869.534 731.281 869.279 731.794C869.024 732.307 868.642 732.82 868.132 733.269C867.623 733.718 867.049 734.038 866.348 734.295C865.648 734.551 864.883 734.68 863.991 734.68C863.1 734.68 862.335 734.551 861.698 734.295C860.997 734.038 860.424 733.718 859.978 733.269C859.468 732.82 859.15 732.307 858.895 731.666C858.64 731.025 858.513 730.383 858.513 729.614H860.934C860.934 730.512 861.188 731.217 861.698 731.73C862.208 732.243 862.972 732.435 863.991 732.435C865.074 732.435 865.903 732.243 866.412 731.794C866.922 731.345 867.177 730.768 867.177 730.127C867.177 729.55 866.986 729.037 866.54 728.716C866.094 728.395 865.584 728.075 864.947 727.882C864.31 727.626 863.609 727.434 862.845 727.177C862.08 726.985 861.38 726.664 860.806 726.279C860.169 725.895 859.66 725.446 859.214 724.869C858.895 724.356 858.704 723.586 858.704 722.624ZM851.633 732.179C852.015 732.179 852.334 732.115 852.716 731.986C853.034 731.858 853.353 731.666 853.608 731.409C853.862 731.153 854.054 730.896 854.181 730.576C854.308 730.255 854.372 729.934 854.372 729.55C854.372 729.165 854.308 728.844 854.181 728.524C854.054 728.203 853.862 727.947 853.608 727.69C853.353 727.434 853.098 727.241 852.716 727.113C852.397 726.985 852.015 726.921 851.633 726.921H847.492V732.115H851.633V732.179ZM847.556 724.933H851.569C852.206 724.933 852.78 724.74 853.225 724.291C853.671 723.843 853.862 723.33 853.862 722.752C853.862 722.175 853.671 721.662 853.225 721.213C852.78 720.764 852.206 720.572 851.569 720.572H847.556V724.933ZM854.436 725.83C854.882 726.087 855.264 726.408 855.583 726.792C855.901 727.113 856.156 727.562 856.411 728.011C856.665 728.524 856.793 729.101 856.793 729.87C856.793 730.512 856.665 731.089 856.411 731.666C856.156 732.243 855.774 732.692 855.328 733.141C854.882 733.59 854.308 733.91 853.671 734.167C853.034 734.423 852.334 734.552 851.633 734.552H845.071V718.264H851.505C852.143 718.264 852.716 718.392 853.289 718.648C853.862 718.905 854.372 719.225 854.754 719.61C855.2 719.995 855.519 720.508 855.71 721.021C855.965 721.534 856.092 722.175 856.092 722.752C856.092 723.265 856.028 723.714 855.837 724.099C855.646 724.484 855.455 724.804 855.264 725.061C855.073 725.382 854.754 725.638 854.436 725.83ZM835.452 732.435C835.962 732.435 836.408 732.371 836.854 732.179C837.299 731.987 837.682 731.73 838 731.409C838.319 731.089 838.574 730.64 838.765 730.191C838.956 729.742 839.02 729.165 839.02 728.588V718.264H841.44V728.588C841.44 729.486 841.313 730.255 840.994 731.025C840.676 731.794 840.294 732.435 839.72 732.948C839.211 733.461 838.574 733.91 837.809 734.231C837.045 734.552 836.28 734.68 835.388 734.68C834.496 734.68 833.732 734.552 832.968 734.231C832.267 733.91 831.566 733.526 831.057 732.948C830.547 732.435 830.101 731.794 829.782 731.025C829.464 730.255 829.336 729.486 829.336 728.588V718.264H831.757V728.588C831.757 729.165 831.821 729.678 832.012 730.191C832.203 730.64 832.458 731.089 832.776 731.409C833.095 731.73 833.477 731.987 833.923 732.179C834.497 732.371 834.942 732.435 835.452 732.435ZM815.959 722.624C815.959 722.047 816.086 721.47 816.341 720.957C816.596 720.444 816.978 719.931 817.424 719.482C817.933 719.033 818.507 718.713 819.144 718.456C819.781 718.2 820.545 718.071 821.31 718.071C822.074 718.071 822.775 718.2 823.412 718.456C824.049 718.713 824.622 719.097 825.068 719.546C825.514 719.995 825.896 720.508 826.151 721.149C826.406 721.726 826.533 722.432 826.533 723.137H824.113C824.113 722.304 823.858 721.598 823.348 721.085C822.839 720.572 822.138 720.316 821.31 720.316C820.864 720.316 820.482 720.38 820.099 720.508C819.717 720.636 819.399 720.829 819.144 721.021C818.889 721.278 818.698 721.47 818.57 721.791C818.443 722.047 818.379 722.368 818.379 722.624C818.379 723.201 818.571 723.65 819.016 723.971C819.462 724.291 819.972 724.548 820.609 724.74C821.246 724.933 821.947 725.189 822.648 725.382C823.412 725.574 824.113 725.895 824.686 726.279C825.323 726.664 825.833 727.113 826.279 727.754C826.725 728.331 826.916 729.165 826.916 730.127C826.916 730.704 826.788 731.281 826.533 731.794C826.279 732.307 825.896 732.82 825.387 733.269C824.877 733.718 824.304 734.038 823.603 734.295C822.902 734.551 822.138 734.68 821.246 734.68C820.354 734.68 819.59 734.551 818.953 734.295C818.252 734.038 817.679 733.718 817.233 733.269C816.723 732.82 816.405 732.307 816.15 731.666C815.895 731.025 815.768 730.383 815.768 729.614H818.188C818.188 730.512 818.443 731.217 818.953 731.73C819.462 732.243 820.227 732.435 821.246 732.435C822.329 732.435 823.157 732.243 823.667 731.794C824.176 731.345 824.431 730.768 824.431 730.127C824.431 729.55 824.24 729.037 823.794 728.716C823.348 728.395 822.839 728.075 822.202 727.882C821.565 727.626 820.864 727.434 820.099 727.177C819.335 726.985 818.634 726.664 818.061 726.279C817.424 725.895 816.914 725.446 816.468 724.869C816.15 724.356 815.959 723.586 815.959 722.624Z" fill="white"/>
<path d="M271.597 597.904H38.1016V611.582H271.597V597.904Z" fill="#CFCFCF"/>
<path d="M0 667.269H1018" stroke="#CFCFCF" stroke-width="2.8346" stroke-miterlimit="2.6131"/>
<path d="M428.889 626.236H38.1016V639.914H428.889V626.236Z" fill="#CFCFCF"/>
<path fill-rule="evenodd" clip-rule="evenodd" d="M63.5028 696.578C80.2212 696.578 93.7888 709.926 93.7888 726.375C93.7888 742.824 80.2212 756.173 63.5028 756.173C46.7844 756.173 33.2168 742.824 33.2168 726.375C33.2168 709.863 46.7844 696.578 63.5028 696.578Z" fill="#96D9C9"/>
<path d="M201.256 710.255H114.306V720.025H201.256V710.255Z" fill="#CFCFCF"/>
<path d="M259.874 732.726H114.306V742.495H259.874V732.726Z" fill="#CFCFCF"/>
</svg>
